<svg xmlns="http://www.w3.org/2000/svg" width="673" height="545" font-family="DejaVu Sans, Liberation Sans, Arial, sans-serif" fill="black"><rect width="100%" height="100%" fill="white" /><line x1="59" y1="494" x2="659" y2="494" stroke="#000000" stroke-width="1" /><line x1="59" y1="44" x2="59" y2="494" stroke="#000000" stroke-width="1" /><line x1="234" y1="44" x2="234" y2="494" stroke="#cccccc" stroke-width="1" /><line x1="359" y1="44" x2="359" y2="494" stroke="#cccccc" stroke-width="1" /><line x1="484" y1="44" x2="484" y2="494" stroke="#cccccc" stroke-width="1" /><line x1="609" y1="44" x2="609" y2="494" stroke="#cccccc" stroke-width="1" /><line x1="59" y1="381.5" x2="659" y2="381.5" stroke="#cccccc" stroke-width="1" /><line x1="59" y1="269" x2="659" y2="269" stroke="#cccccc" stroke-width="1" /><line x1="59" y1="156.5" x2="659" y2="156.5" stroke="#cccccc" stroke-width="1" /><line x1="59" y1="44" x2="659" y2="44" stroke="#cccccc" stroke-width="1" /><line x1="109" y1="494" x2="109" y2="499" stroke="#000000" stroke-width="1" /><text x="109" y="511" font-size="12" text-anchor="middle">-5</text><line x1="234" y1="494" x2="234" y2="499" stroke="#000000" stroke-width="1" /><text x="234" y="511" font-size="12" text-anchor="middle">-2.5</text><line x1="359" y1="494" x2="359" y2="499" stroke="#000000" stroke-width="1" /><text x="359" y="511" font-size="12" text-anchor="middle">0</text><line x1="484" y1="494" x2="484" y2="499" stroke="#000000" stroke-width="1" /><text x="484" y="511" font-size="12" text-anchor="middle">2.5</text><line x1="609" y1="494" x2="609" y2="499" stroke="#000000" stroke-width="1" /><text x="609" y="511" font-size="12" text-anchor="middle">5</text><line x1="54" y1="494" x2="59" y2="494" stroke="#000000" stroke-width="1" /><text x="51" y="498.2" font-size="12" text-anchor="end">0</text><line x1="54" y1="381.5" x2="59" y2="381.5" stroke="#000000" stroke-width="1" /><text x="51" y="385.7" font-size="12" text-anchor="end">0.2</text><line x1="54" y1="269" x2="59" y2="269" stroke="#000000" stroke-width="1" /><text x="51" y="273.2" font-size="12" text-anchor="end">0.4</text><line x1="54" y1="156.5" x2="59" y2="156.5" stroke="#000000" stroke-width="1" /><text x="51" y="160.70000000000002" font-size="12" text-anchor="end">0.6</text><line x1="54" y1="44" x2="59" y2="44" stroke="#000000" stroke-width="1" /><text x="51" y="48.2" font-size="12" text-anchor="end">0.8</text><text x="359" y="538" font-size="14" text-anchor="middle">Expression</text><text x="15" y="272.5" font-size="14" text-anchor="middle" transform="rotate(-90,15,272.5)">Density</text><text x="359" y="22" font-size="18" text-anchor="middle">ERBB2 expression density (brca_tcga_pan_can_atlas_2018)</text><path d="M 147.63 493.98 L 149.73 493.96000000000004 L 151.83 493.92 L 153.94 493.84000000000003 L 156.04 493.71000000000004 L 158.14000000000001 493.53000000000003 L 160.25 493.29 L 162.35 493.03000000000003 L 164.45000000000002 492.78000000000003 L 166.56 492.6 L 168.66 492.53000000000003 L 170.76 492.59000000000003 L 172.87 492.76 L 174.97 493.0 L 177.08 493.26 L 179.18 493.49 L 181.28 493.67 L 183.39000000000001 493.77000000000004 L 185.49 493.78000000000003 L 187.59 493.72 L 189.70000000000002 493.58 L 191.8 493.38 L 193.9 493.12 L 196.01 492.86 L 198.11 492.65000000000003 L 200.21 492.53000000000003 L 202.32 492.52000000000004 L 204.42000000000002 492.61 L 206.52 492.75 L 208.63 492.87 L 210.73000000000002 492.89 L 212.83 492.77000000000004 L 214.94 492.48 L 217.04 492.06 L 219.14000000000001 491.55 L 221.25 491.02 L 223.35 490.52 L 225.46 490.1 L 227.56 489.76 L 229.66 489.51 L 231.77 489.31 L 233.87 489.19 L 235.97 489.13 L 238.08 489.14 L 240.18 489.2 L 242.28 489.29 L 244.39000000000001 489.35 L 246.49 489.32 L 248.59 489.1 L 250.70000000000002 488.65000000000003 L 252.8 487.94 L 254.9 487.02 L 257.01 485.98 L 259.11 484.92 L 261.21 483.85 L 263.32 482.68 L 265.42 481.19 L 267.52 479.11 L 269.63 476.17 L 271.73 472.28000000000003 L 273.84000000000003 467.56 L 275.94 462.3 L 278.04 456.94 L 280.15000000000003 451.92 L 282.25 447.57 L 284.35 444.03000000000003 L 286.46 441.31 L 288.56 439.24 L 290.66 437.48 L 292.77 435.61 L 294.87 433.09000000000003 L 296.97 429.38 L 299.08 424.01 L 301.18 416.61 L 303.28000000000003 407.0 L 305.39 395.26 L 307.49 381.68 L 309.59000000000003 366.73 L 311.7 350.97 L 313.8 334.87 L 315.90000000000003 318.73 L 318.01 302.72 L 320.11 286.94 L 322.22 271.58 L 324.32 257.02 L 326.42 243.72 L 328.53000000000003 232.05 L 330.63 222.1 L 332.73 213.47 L 334.84000000000003 205.31 L 336.94 196.63 L 339.04 186.68 L 341.15000000000003 175.32 L 343.25 163.16 L 345.35 151.43 L 347.46 141.57 L 349.56 134.78 L 351.66 131.72 L 353.77 132.43 L 355.87 136.43 L 357.97 142.9 L 360.08 150.89000000000001 L 362.18 159.57 L 364.28000000000003 168.45000000000002 L 366.39 177.61 L 368.49 187.61 L 370.6 199.42000000000002 L 372.7 213.91 L 374.8 231.53 L 376.91 252.1 L 379.01 274.88 L 381.11 298.71 L 383.22 322.45 L 385.32 345.05 L 387.42 365.8 L 389.53000000000003 384.24 L 391.63 400.25 L 393.73 413.94 L 395.84000000000003 425.66 L 397.94 435.83 L 400.04 444.87 L 402.15000000000003 452.99 L 404.25 460.22 L 406.35 466.38 L 408.46000000000004 471.3 L 410.56 474.84000000000003 L 412.66 477.05 L 414.77 478.11 L 416.87 478.27 L 418.98 477.79 L 421.08 476.86 L 423.18 475.64 L 425.29 474.23 L 427.39 472.72 L 429.49 471.22 L 431.6 469.88 L 433.7 468.83 L 435.8 468.21000000000004 L 437.91 468.06 L 440.01 468.36 L 442.11 469.01 L 444.22 469.87 L 446.32 470.83 L 448.42 471.81 L 450.53000000000003 472.78000000000003 L 452.63 473.75 L 454.73 474.72 L 456.84000000000003 475.68 L 458.94 476.59000000000003 L 461.04 477.43 L 463.15000000000003 478.15000000000003 L 465.25 478.68 L 467.36 478.93 L 469.46000000000004 478.78000000000003 L 471.56 478.08 L 473.67 476.75 L 475.77 474.73 L 477.87 472.1 L 479.98 469.02 L 482.08 465.73 L 484.18 462.56 L 486.29 459.82 L 488.39 457.8 L 490.49 456.62 L 492.6 456.22 L 494.7 456.36 L 496.8 456.66 L 498.91 456.79 L 501.01 456.5 L 503.11 455.8 L 505.22 454.94 L 507.32 454.41 L 509.42 454.73 L 511.53000000000003 456.33 L 513.63 459.32 L 515.74 463.48 L 517.84 468.35 L 519.94 473.36 L 522.05 478.02 L 524.15 482.01 L 526.25 485.18 L 528.36 487.55 L 530.46 489.18 L 532.5600000000001 490.2 L 534.67 490.74 L 536.77 490.97 L 538.87 491.03000000000003 L 540.98 491.07 L 543.08 491.19 L 545.1800000000001 491.43 L 547.29 491.8 L 549.39 492.24 L 551.49 492.7 L 553.6 493.1 L 555.7 493.43 L 557.8000000000001 493.66 L 559.91 493.82 L 562.01 493.91 L 564.11 493.96000000000004 L 566.22 493.98 L 566.22 494 L 147.63 494 Z" stroke="none" stroke-width="0" fill="#1f77b4" fill-opacity="0.2" /><path d="M 147.63 493.98 L 149.73 493.96000000000004 L 151.83 493.92 L 153.94 493.84000000000003 L 156.04 493.71000000000004 L 158.14000000000001 493.53000000000003 L 160.25 493.29 L 162.35 493.03000000000003 L 164.45000000000002 492.78000000000003 L 166.56 492.6 L 168.66 492.53000000000003 L 170.76 492.59000000000003 L 172.87 492.76 L 174.97 493.0 L 177.08 493.26 L 179.18 493.49 L 181.28 493.67 L 183.39000000000001 493.77000000000004 L 185.49 493.78000000000003 L 187.59 493.72 L 189.70000000000002 493.58 L 191.8 493.38 L 193.9 493.12 L 196.01 492.86 L 198.11 492.65000000000003 L 200.21 492.53000000000003 L 202.32 492.52000000000004 L 204.42000000000002 492.61 L 206.52 492.75 L 208.63 492.87 L 210.73000000000002 492.89 L 212.83 492.77000000000004 L 214.94 492.48 L 217.04 492.06 L 219.14000000000001 491.55 L 221.25 491.02 L 223.35 490.52 L 225.46 490.1 L 227.56 489.76 L 229.66 489.51 L 231.77 489.31 L 233.87 489.19 L 235.97 489.13 L 238.08 489.14 L 240.18 489.2 L 242.28 489.29 L 244.39000000000001 489.35 L 246.49 489.32 L 248.59 489.1 L 250.70000000000002 488.65000000000003 L 252.8 487.94 L 254.9 487.02 L 257.01 485.98 L 259.11 484.92 L 261.21 483.85 L 263.32 482.68 L 265.42 481.19 L 267.52 479.11 L 269.63 476.17 L 271.73 472.28000000000003 L 273.84000000000003 467.56 L 275.94 462.3 L 278.04 456.94 L 280.15000000000003 451.92 L 282.25 447.57 L 284.35 444.03000000000003 L 286.46 441.31 L 288.56 439.24 L 290.66 437.48 L 292.77 435.61 L 294.87 433.09000000000003 L 296.97 429.38 L 299.08 424.01 L 301.18 416.61 L 303.28000000000003 407.0 L 305.39 395.26 L 307.49 381.68 L 309.59000000000003 366.73 L 311.7 350.97 L 313.8 334.87 L 315.90000000000003 318.73 L 318.01 302.72 L 320.11 286.94 L 322.22 271.58 L 324.32 257.02 L 326.42 243.72 L 328.53000000000003 232.05 L 330.63 222.1 L 332.73 213.47 L 334.84000000000003 205.31 L 336.94 196.63 L 339.04 186.68 L 341.15000000000003 175.32 L 343.25 163.16 L 345.35 151.43 L 347.46 141.57 L 349.56 134.78 L 351.66 131.72 L 353.77 132.43 L 355.87 136.43 L 357.97 142.9 L 360.08 150.89000000000001 L 362.18 159.57 L 364.28000000000003 168.45000000000002 L 366.39 177.61 L 368.49 187.61 L 370.6 199.42000000000002 L 372.7 213.91 L 374.8 231.53 L 376.91 252.1 L 379.01 274.88 L 381.11 298.71 L 383.22 322.45 L 385.32 345.05 L 387.42 365.8 L 389.53000000000003 384.24 L 391.63 400.25 L 393.73 413.94 L 395.84000000000003 425.66 L 397.94 435.83 L 400.04 444.87 L 402.15000000000003 452.99 L 404.25 460.22 L 406.35 466.38 L 408.46000000000004 471.3 L 410.56 474.84000000000003 L 412.66 477.05 L 414.77 478.11 L 416.87 478.27 L 418.98 477.79 L 421.08 476.86 L 423.18 475.64 L 425.29 474.23 L 427.39 472.72 L 429.49 471.22 L 431.6 469.88 L 433.7 468.83 L 435.8 468.21000000000004 L 437.91 468.06 L 440.01 468.36 L 442.11 469.01 L 444.22 469.87 L 446.32 470.83 L 448.42 471.81 L 450.53000000000003 472.78000000000003 L 452.63 473.75 L 454.73 474.72 L 456.84000000000003 475.68 L 458.94 476.59000000000003 L 461.04 477.43 L 463.15000000000003 478.15000000000003 L 465.25 478.68 L 467.36 478.93 L 469.46000000000004 478.78000000000003 L 471.56 478.08 L 473.67 476.75 L 475.77 474.73 L 477.87 472.1 L 479.98 469.02 L 482.08 465.73 L 484.18 462.56 L 486.29 459.82 L 488.39 457.8 L 490.49 456.62 L 492.6 456.22 L 494.7 456.36 L 496.8 456.66 L 498.91 456.79 L 501.01 456.5 L 503.11 455.8 L 505.22 454.94 L 507.32 454.41 L 509.42 454.73 L 511.53000000000003 456.33 L 513.63 459.32 L 515.74 463.48 L 517.84 468.35 L 519.94 473.36 L 522.05 478.02 L 524.15 482.01 L 526.25 485.18 L 528.36 487.55 L 530.46 489.18 L 532.5600000000001 490.2 L 534.67 490.74 L 536.77 490.97 L 538.87 491.03000000000003 L 540.98 491.07 L 543.08 491.19 L 545.1800000000001 491.43 L 547.29 491.8 L 549.39 492.24 L 551.49 492.7 L 553.6 493.1 L 555.7 493.43 L 557.8000000000001 493.66 L 559.91 493.82 L 562.01 493.91 L 564.11 493.96000000000004 L 566.22 493.98" stroke="#1f77b4" stroke-width="1.5" fill="none" /></svg>