<svg xmlns="http://www.w3.org/2000/svg" width="673" height="545" font-family="DejaVu Sans, Liberation Sans, Arial, sans-serif" fill="black"><rect width="100%" height="100%" fill="white" /><line x1="59" y1="494" x2="659" y2="494" stroke="#000000" stroke-width="1" /><line x1="59" y1="44" x2="59" y2="494" stroke="#000000" stroke-width="1" /><line x1="209" y1="44" x2="209" y2="494" stroke="#cccccc" stroke-width="1" /><line x1="359" y1="44" x2="359" y2="494" stroke="#cccccc" stroke-width="1" /><line x1="509" y1="44" x2="509" y2="494" stroke="#cccccc" stroke-width="1" /><line x1="659" y1="44" x2="659" y2="494" stroke="#cccccc" stroke-width="1" /><line x1="59" y1="419" x2="659" y2="419" stroke="#cccccc" stroke-width="1" /><line x1="59" y1="344" x2="659" y2="344" stroke="#cccccc" stroke-width="1" /><line x1="59" y1="269" x2="659" y2="269" stroke="#cccccc" stroke-width="1" /><line x1="59" y1="194" x2="659" y2="194" stroke="#cccccc" stroke-width="1" /><line x1="59" y1="119" x2="659" y2="119" stroke="#cccccc" stroke-width="1" /><line x1="59" y1="44" x2="659" y2="44" stroke="#cccccc" stroke-width="1" /><line x1="59" y1="494" x2="59" y2="499" stroke="#000000" stroke-width="1" /><text x="59" y="511" font-size="12" text-anchor="middle">-3.804</text><line x1="209" y1="494" x2="209" y2="499" stroke="#000000" stroke-width="1" /><text x="209" y="511" font-size="12" text-anchor="middle">-1.923</text><line x1="359" y1="494" x2="359" y2="499" stroke="#000000" stroke-width="1" /><text x="359" y="511" font-size="12" text-anchor="middle">-0.042</text><line x1="509" y1="494" x2="509" y2="499" stroke="#000000" stroke-width="1" /><text x="509" y="511" font-size="12" text-anchor="middle">1.84</text><line x1="659" y1="494" x2="659" y2="499" stroke="#000000" stroke-width="1" /><text x="659" y="511" font-size="12" text-anchor="middle">3.721</text><line x1="54" y1="494" x2="59" y2="494" stroke="#000000" stroke-width="1" /><text x="51" y="498.2" font-size="12" text-anchor="end">0</text><line x1="54" y1="419" x2="59" y2="419" stroke="#000000" stroke-width="1" /><text x="51" y="423.2" font-size="12" text-anchor="end">50</text><line x1="54" y1="344" x2="59" y2="344" stroke="#000000" stroke-width="1" /><text x="51" y="348.2" font-size="12" text-anchor="end">100</text><line x1="54" y1="269" x2="59" y2="269" stroke="#000000" stroke-width="1" /><text x="51" y="273.2" font-size="12" text-anchor="end">150</text><line x1="54" y1="194" x2="59" y2="194" stroke="#000000" stroke-width="1" /><text x="51" y="198.20000000000002" font-size="12" text-anchor="end">200</text><line x1="54" y1="119" x2="59" y2="119" stroke="#000000" stroke-width="1" /><text x="51" y="123.2" font-size="12" text-anchor="end">250</text><line x1="54" y1="44" x2="59" y2="44" stroke="#000000" stroke-width="1" /><text x="51" y="48.2" font-size="12" text-anchor="end">300</text><text x="359" y="538" font-size="14" text-anchor="middle">Expression</text><text x="15" y="272.5" font-size="14" text-anchor="middle" transform="rotate(-90,15,272.5)">Count</text><text x="359" y="22" font-size="18" text-anchor="middle">ERBB2 expression histogram (brca_tcga_pan_can_atlas_2018)</text><rect x="59" y="492.5" width="30" height="1.5" fill="#1f77b4" /><rect x="89" y="492.5" width="30" height="1.5" fill="#1f77b4" /><rect x="119" y="492.5" width="30" height="1.5" fill="#1f77b4" /><rect x="149" y="488" width="30" height="6" fill="#1f77b4" /><rect x="179" y="486.5" width="30" height="7.5" fill="#1f77b4" /><rect x="209" y="467" width="30" height="27" fill="#1f77b4" /><rect x="239" y="432.5" width="30" height="61.5" fill="#1f77b4" /><rect x="269" y="356" width="30" height="138" fill="#1f77b4" /><rect x="299" y="209" width="30" height="285" fill="#1f77b4" /><rect x="329" y="117.5" width="30" height="376.5" fill="#1f77b4" /><rect x="359" y="138.5" width="30" height="355.5" fill="#1f77b4" /><rect x="389" y="338" width="30" height="156" fill="#1f77b4" /><rect x="419" y="458" width="30" height="36" fill="#1f77b4" /><rect x="449" y="471.5" width="30" height="22.5" fill="#1f77b4" /><rect x="479" y="470" width="30" height="24" fill="#1f77b4" /><rect x="509" y="473" width="30" height="21" fill="#1f77b4" /><rect x="539" y="468.5" width="30" height="25.5" fill="#1f77b4" /><rect x="569" y="455" width="30" height="39" fill="#1f77b4" /><rect x="599" y="461" width="30" height="33" fill="#1f77b4" /><rect x="629" y="489.5" width="30" height="4.5" fill="#1f77b4" /></svg>