<svg xmlns="http://www.w3.org/2000/svg" width="673" height="545" font-family="DejaVu Sans, Liberation Sans, Arial, sans-serif" fill="black"><rect width="100%" height="100%" fill="white" /><line x1="59" y1="494" x2="659" y2="494" stroke="#000000" stroke-width="1" /><line x1="59" y1="44" x2="59" y2="494" stroke="#000000" stroke-width="1" /><line x1="59" y1="362.75" x2="659" y2="362.75" stroke="#cccccc" stroke-width="1" /><line x1="59" y1="269" x2="659" y2="269" stroke="#cccccc" stroke-width="1" /><line x1="59" y1="175.25" x2="659" y2="175.25" stroke="#cccccc" stroke-width="1" /><line x1="59" y1="81.5" x2="659" y2="81.5" stroke="#cccccc" stroke-width="1" /><text x="209" y="511" font-size="12" text-anchor="middle">TP53-mutant</text><line x1="209" y1="494" x2="209" y2="499" stroke="#000000" stroke-width="1" /><text x="509" y="511" font-size="12" text-anchor="middle">TP53-wildtype</text><line x1="509" y1="494" x2="509" y2="499" stroke="#000000" stroke-width="1" /><line x1="54" y1="456.5" x2="59" y2="456.5" stroke="#000000" stroke-width="1" /><text x="51" y="460.7" font-size="12" text-anchor="end">-5</text><line x1="54" y1="362.75" x2="59" y2="362.75" stroke="#000000" stroke-width="1" /><text x="51" y="366.95" font-size="12" text-anchor="end">-2.5</text><line x1="54" y1="269" x2="59" y2="269" stroke="#000000" stroke-width="1" /><text x="51" y="273.2" font-size="12" text-anchor="end">0</text><line x1="54" y1="175.25" x2="59" y2="175.25" stroke="#000000" stroke-width="1" /><text x="51" y="179.45000000000002" font-size="12" text-anchor="end">2.5</text><line x1="54" y1="81.5" x2="59" y2="81.5" stroke="#000000" stroke-width="1" /><text x="51" y="85.7" font-size="12" text-anchor="end">5</text><text x="359" y="538" font-size="14" text-anchor="middle">Group</text><text x="15" y="272.5" font-size="14" text-anchor="middle" transform="rotate(-90,15,272.5)">Expression</text><text x="359" y="22" font-size="18" text-anchor="middle">ERBB2 by TP53 status (brca_tcga_pan_can_atlas_2018)</text><path d="M 209.0 435.49 L 208.99 433.83 L 208.99 432.18 L 208.98000000000002 430.52 L 208.98000000000002 428.86 L 208.96 427.2 L 208.94 425.54 L 208.92000000000002 423.89 L 208.89000000000001 422.23 L 208.86 420.57 L 208.83 418.91 L 208.8 417.26 L 208.77 415.6 L 208.75 413.94 L 208.74 412.28000000000003 L 208.74 410.63 L 208.75 408.97 L 208.77 407.31 L 208.79 405.65000000000003 L 208.81 404.0 L 208.82 402.34000000000003 L 208.84 400.68 L 208.84 399.02 L 208.83 397.37 L 208.81 395.71000000000004 L 208.79 394.05 L 208.77 392.39 L 208.75 390.74 L 208.73000000000002 389.08 L 208.72 387.42 L 208.72 385.76 L 208.73000000000002 384.1 L 208.74 382.45 L 208.74 380.79 L 208.75 379.13 L 208.75 377.47 L 208.75 375.82 L 208.74 374.16 L 208.72 372.5 L 208.71 370.84000000000003 L 208.70000000000002 369.19 L 208.69 367.53000000000003 L 208.68 365.87 L 208.67000000000002 364.21 L 208.66 362.56 L 208.64000000000001 360.90000000000003 L 208.6 359.24 L 208.55 357.58 L 208.48000000000002 355.93 L 208.39000000000001 354.27 L 208.27 352.61 L 208.13 350.95 L 207.96 349.29 L 207.75 347.64 L 207.51 345.98 L 207.23000000000002 344.32 L 206.9 342.66 L 206.51 341.01 L 206.07 339.35 L 205.58 337.69 L 205.03 336.03000000000003 L 204.44 334.38 L 203.83 332.72 L 203.21 331.06 L 202.6 329.40000000000003 L 202.01 327.75 L 201.45000000000002 326.09000000000003 L 200.9 324.43 L 200.35 322.77 L 199.78 321.12 L 199.15 319.46 L 198.43 317.8 L 197.59 316.14 L 196.59 314.48 L 195.43 312.83 L 194.1 311.17 L 192.6 309.51 L 190.97 307.85 L 189.24 306.2 L 187.46 304.54 L 185.70000000000002 302.88 L 184.02 301.22 L 182.48 299.57 L 181.17000000000002 297.91 L 180.12 296.25 L 179.4 294.59000000000003 L 179.02 292.94 L 179.0 291.28000000000003 L 179.32 289.62 L 179.95000000000002 287.96 L 180.85 286.31 L 181.98 284.65000000000003 L 183.26 282.99 L 184.67000000000002 281.33 L 186.14000000000001 279.67 L 187.65 278.02 L 189.15 276.36 L 190.62 274.7 L 192.03 273.04 L 193.37 271.39 L 194.64000000000001 269.73 L 195.81 268.07 L 196.9 266.41 L 197.92000000000002 264.76 L 198.86 263.1 L 199.75 261.44 L 200.58 259.78000000000003 L 201.36 258.13 L 202.1 256.47 L 202.79 254.81 L 203.41 253.15 L 203.98000000000002 251.5 L 204.47 249.84 L 204.89000000000001 248.18 L 205.24 246.52 L 205.53 244.87 L 205.78 243.21 L 206.0 241.55 L 206.20000000000002 239.89000000000001 L 206.38 238.23000000000002 L 206.56 236.58 L 206.73000000000002 234.92000000000002 L 206.88 233.26 L 207.01 231.6 L 207.09 229.95000000000002 L 207.13 228.29 L 207.1 226.63 L 207.01 224.97 L 206.86 223.32 L 206.66 221.66 L 206.43 220.0 L 206.18 218.34 L 205.94 216.69 L 205.73000000000002 215.03 L 205.57 213.37 L 205.47 211.71 L 205.44 210.06 L 205.49 208.4 L 205.62 206.74 L 205.82 205.08 L 206.07 203.42000000000002 L 206.35 201.77 L 206.63 200.11 L 206.91 198.45000000000002 L 207.15 196.79 L 207.33 195.14000000000001 L 207.45000000000002 193.48000000000002 L 207.49 191.82 L 207.45000000000002 190.16 L 207.33 188.51 L 207.12 186.85 L 206.84 185.19 L 206.49 183.53 L 206.09 181.88 L 205.65 180.22 L 205.19 178.56 L 204.73000000000002 176.9 L 204.29 175.25 L 203.88 173.59 L 203.53 171.93 L 203.25 170.27 L 203.03 168.61 L 202.88 166.96 L 202.79 165.3 L 202.77 163.64000000000001 L 202.81 161.98 L 202.92000000000002 160.33 L 203.09 158.67000000000002 L 203.34 157.01 L 203.66 155.35 L 204.04 153.70000000000002 L 204.49 152.04 L 204.99 150.38 L 205.5 148.72 L 206.0 147.07 L 206.48000000000002 145.41 L 206.9 143.75 L 207.27 142.09 L 207.57 140.44 L 207.8 138.78 L 207.98000000000002 137.12 L 208.11 135.46 L 208.22 133.81 L 208.3 132.15 L 208.37 130.49 L 208.44 128.83 L 208.52 127.17 L 208.59 125.52 L 208.66 123.86 L 208.73000000000002 122.2 L 208.79 120.54 L 208.85 118.89 L 208.89000000000001 117.23 L 208.92000000000002 115.57000000000001 L 208.95000000000002 113.91 L 208.97 112.26 L 208.98000000000002 110.60000000000001 L 208.99 108.94 L 208.99 107.28 L 209.0 105.63 L 209.0 105.63 L 209.01 107.28 L 209.01 108.94 L 209.02 110.60000000000001 L 209.03 112.26 L 209.05 113.91 L 209.08 115.57000000000001 L 209.11 117.23 L 209.15 118.89 L 209.21 120.54 L 209.27 122.2 L 209.34 123.86 L 209.41 125.52 L 209.48000000000002 127.17 L 209.56 128.83 L 209.63 130.49 L 209.70000000000002 132.15 L 209.78 133.81 L 209.89000000000001 135.46 L 210.02 137.12 L 210.20000000000002 138.78 L 210.43 140.44 L 210.73000000000002 142.09 L 211.1 143.75 L 211.52 145.41 L 212.0 147.07 L 212.5 148.72 L 213.01 150.38 L 213.51 152.04 L 213.96 153.70000000000002 L 214.34 155.35 L 214.66 157.01 L 214.91 158.67000000000002 L 215.08 160.33 L 215.19 161.98 L 215.23000000000002 163.64000000000001 L 215.21 165.3 L 215.12 166.96 L 214.97 168.61 L 214.75 170.27 L 214.47 171.93 L 214.12 173.59 L 213.71 175.25 L 213.27 176.9 L 212.81 178.56 L 212.35 180.22 L 211.91 181.88 L 211.51 183.53 L 211.16 185.19 L 210.88 186.85 L 210.67000000000002 188.51 L 210.55 190.16 L 210.51 191.82 L 210.55 193.48000000000002 L 210.67000000000002 195.14000000000001 L 210.85 196.79 L 211.09 198.45000000000002 L 211.37 200.11 L 211.65 201.77 L 211.93 203.42000000000002 L 212.18 205.08 L 212.38 206.74 L 212.51 208.4 L 212.56 210.06 L 212.53 211.71 L 212.43 213.37 L 212.27 215.03 L 212.06 216.69 L 211.82 218.34 L 211.57 220.0 L 211.34 221.66 L 211.14000000000001 223.32 L 210.99 224.97 L 210.9 226.63 L 210.87 228.29 L 210.91 229.95000000000002 L 210.99 231.6 L 211.12 233.26 L 211.27 234.92000000000002 L 211.44 236.58 L 211.62 238.23000000000002 L 211.8 239.89000000000001 L 212.0 241.55 L 212.22 243.21 L 212.47 244.87 L 212.76 246.52 L 213.11 248.18 L 213.53 249.84 L 214.02 251.5 L 214.59 253.15 L 215.21 254.81 L 215.9 256.47 L 216.64000000000001 258.13 L 217.42000000000002 259.78000000000003 L 218.25 261.44 L 219.14000000000001 263.1 L 220.08 264.76 L 221.1 266.41 L 222.19 268.07 L 223.36 269.73 L 224.63 271.39 L 225.97 273.04 L 227.38 274.7 L 228.85 276.36 L 230.35 278.02 L 231.86 279.67 L 233.33 281.33 L 234.74 282.99 L 236.02 284.65000000000003 L 237.15 286.31 L 238.05 287.96 L 238.68 289.62 L 239.0 291.28000000000003 L 238.98000000000002 292.94 L 238.6 294.59000000000003 L 237.88 296.25 L 236.83 297.91 L 235.52 299.57 L 233.98000000000002 301.22 L 232.3 302.88 L 230.54 304.54 L 228.76 306.2 L 227.03 307.85 L 225.4 309.51 L 223.9 311.17 L 222.57 312.83 L 221.41 314.48 L 220.41 316.14 L 219.57 317.8 L 218.85 319.46 L 218.22 321.12 L 217.65 322.77 L 217.1 324.43 L 216.55 326.09000000000003 L 215.99 327.75 L 215.4 329.40000000000003 L 214.79 331.06 L 214.17000000000002 332.72 L 213.56 334.38 L 212.97 336.03000000000003 L 212.42000000000002 337.69 L 211.93 339.35 L 211.49 341.01 L 211.1 342.66 L 210.77 344.32 L 210.49 345.98 L 210.25 347.64 L 210.04 349.29 L 209.87 350.95 L 209.73000000000002 352.61 L 209.61 354.27 L 209.52 355.93 L 209.45000000000002 357.58 L 209.4 359.24 L 209.36 360.90000000000003 L 209.34 362.56 L 209.33 364.21 L 209.32 365.87 L 209.31 367.53000000000003 L 209.3 369.19 L 209.29 370.84000000000003 L 209.28 372.5 L 209.26 374.16 L 209.25 375.82 L 209.25 377.47 L 209.25 379.13 L 209.26 380.79 L 209.26 382.45 L 209.27 384.1 L 209.28 385.76 L 209.28 387.42 L 209.27 389.08 L 209.25 390.74 L 209.23000000000002 392.39 L 209.21 394.05 L 209.19 395.71000000000004 L 209.17000000000002 397.37 L 209.16 399.02 L 209.16 400.68 L 209.18 402.34000000000003 L 209.19 404.0 L 209.21 405.65000000000003 L 209.23000000000002 407.31 L 209.25 408.97 L 209.26 410.63 L 209.26 412.28000000000003 L 209.25 413.94 L 209.23000000000002 415.6 L 209.20000000000002 417.26 L 209.17000000000002 418.91 L 209.14000000000001 420.57 L 209.11 422.23 L 209.08 423.89 L 209.06 425.54 L 209.04 427.2 L 209.02 428.86 L 209.02 430.52 L 209.01 432.18 L 209.01 433.83 L 209.0 435.49 Z" stroke="#000000" stroke-width="0.5" fill="#1f77b4" /><path d="M 509.0 384.88 L 509.0 383.62 L 508.99 382.35 L 508.98 381.09000000000003 L 508.97 379.82 L 508.95 378.55 L 508.92 377.29 L 508.89 376.02 L 508.86 374.76 L 508.83 373.49 L 508.81 372.23 L 508.79 370.96 L 508.78000000000003 369.69 L 508.76 368.43 L 508.74 367.16 L 508.71000000000004 365.90000000000003 L 508.67 364.63 L 508.63 363.37 L 508.59000000000003 362.1 L 508.57 360.84000000000003 L 508.57 359.57 L 508.59000000000003 358.3 L 508.63 357.04 L 508.67 355.77 L 508.72 354.51 L 508.77000000000004 353.24 L 508.8 351.98 L 508.81 350.71 L 508.8 349.44 L 508.77000000000004 348.18 L 508.73 346.91 L 508.68 345.65000000000003 L 508.65000000000003 344.38 L 508.64 343.12 L 508.66 341.85 L 508.68 340.58 L 508.71000000000004 339.32 L 508.72 338.05 L 508.69 336.79 L 508.62 335.52 L 508.51 334.26 L 508.35 332.99 L 508.17 331.73 L 507.96000000000004 330.46 L 507.75 329.19 L 507.54 327.93 L 507.33 326.66 L 507.15000000000003 325.40000000000003 L 507.0 324.13 L 506.88 322.87 L 506.81 321.6 L 506.77000000000004 320.33 L 506.76 319.07 L 506.75 317.8 L 506.73 316.54 L 506.68 315.27 L 506.57 314.01 L 506.38 312.74 L 506.09000000000003 311.47 L 505.7 310.21 L 505.19 308.94 L 504.59000000000003 307.68 L 503.95 306.41 L 503.29 305.15000000000003 L 502.66 303.88 L 502.06 302.62 L 501.48 301.35 L 500.89 300.08 L 500.25 298.82 L 499.54 297.55 L 498.73 296.29 L 497.85 295.02 L 496.92 293.76 L 495.98 292.49 L 495.07 291.22 L 494.2 289.96 L 493.35 288.69 L 492.48 287.43 L 491.52 286.16 L 490.40000000000003 284.90000000000003 L 489.09000000000003 283.63 L 487.59000000000003 282.36 L 485.97 281.1 L 484.31 279.83 L 482.75 278.57 L 481.39 277.3 L 480.32 276.04 L 479.56 274.77 L 479.13 273.51 L 479.0 272.24 L 479.14 270.97 L 479.49 269.71 L 479.98 268.44 L 480.52 267.18 L 481.02 265.91 L 481.45 264.65 L 481.81 263.38 L 482.17 262.11 L 482.64 260.85 L 483.32 259.58 L 484.28000000000003 258.32 L 485.53000000000003 257.05 L 487.03000000000003 255.79 L 488.72 254.52 L 490.51 253.25 L 492.34000000000003 251.99 L 494.14 250.72 L 495.88 249.46 L 497.52000000000004 248.19 L 499.04 246.93 L 500.39 245.66 L 501.57 244.39000000000001 L 502.57 243.13 L 503.42 241.86 L 504.16 240.6 L 504.83 239.33 L 505.46000000000004 238.07 L 506.06 236.8 L 506.6 235.54 L 507.07 234.27 L 507.44 233.0 L 507.7 231.74 L 507.87 230.47 L 507.95 229.21 L 507.98 227.94 L 507.99 226.68 L 507.99 225.41 L 507.99 224.14000000000001 L 508.01 222.88 L 508.03000000000003 221.61 L 508.05 220.35 L 508.05 219.08 L 508.04 217.82 L 508.02000000000004 216.55 L 508.01 215.28 L 508.0 214.02 L 508.01 212.75 L 508.03000000000003 211.49 L 508.06 210.22 L 508.07 208.96 L 508.08 207.69 L 508.07 206.43 L 508.03000000000003 205.16 L 507.97 203.89000000000001 L 507.89 202.63 L 507.8 201.36 L 507.72 200.1 L 507.65000000000003 198.83 L 507.61 197.57 L 507.6 196.3 L 507.62 195.03 L 507.64 193.77 L 507.68 192.5 L 507.73 191.24 L 507.8 189.97 L 507.89 188.71 L 507.99 187.44 L 508.09000000000003 186.17000000000002 L 508.18 184.91 L 508.24 183.64000000000001 L 508.25 182.38 L 508.22 181.11 L 508.14 179.85 L 508.04 178.58 L 507.93 177.32 L 507.81 176.05 L 507.72 174.78 L 507.65000000000003 173.52 L 507.63 172.25 L 507.64 170.99 L 507.68 169.72 L 507.73 168.46 L 507.77000000000004 167.19 L 507.8 165.92000000000002 L 507.81 164.66 L 507.79 163.39000000000001 L 507.74 162.13 L 507.66 160.86 L 507.56 159.6 L 507.46000000000004 158.33 L 507.37 157.06 L 507.33 155.8 L 507.35 154.53 L 507.45 153.27 L 507.6 152.0 L 507.8 150.74 L 508.01 149.47 L 508.2 148.21 L 508.38 146.94 L 508.53000000000003 145.67000000000002 L 508.65000000000003 144.41 L 508.75 143.14000000000001 L 508.83 141.88 L 508.89 140.61 L 508.93 139.35 L 508.96000000000004 138.08 L 508.98 136.81 L 508.99 135.55 L 509.0 134.28 L 509.0 133.02 L 509.0 133.02 L 509.0 134.28 L 509.01 135.55 L 509.02000000000004 136.81 L 509.04 138.08 L 509.07 139.35 L 509.11 140.61 L 509.17 141.88 L 509.25 143.14000000000001 L 509.35 144.41 L 509.47 145.67000000000002 L 509.62 146.94 L 509.8 148.21 L 509.99 149.47 L 510.2 150.74 L 510.40000000000003 152.0 L 510.55 153.27 L 510.65000000000003 154.53 L 510.67 155.8 L 510.63 157.06 L 510.54 158.33 L 510.44 159.6 L 510.34000000000003 160.86 L 510.26 162.13 L 510.21000000000004 163.39000000000001 L 510.19 164.66 L 510.2 165.92000000000002 L 510.23 167.19 L 510.27000000000004 168.46 L 510.32 169.72 L 510.36 170.99 L 510.37 172.25 L 510.35 173.52 L 510.28000000000003 174.78 L 510.19 176.05 L 510.07 177.32 L 509.96000000000004 178.58 L 509.86 179.85 L 509.78000000000003 181.11 L 509.75 182.38 L 509.76 183.64000000000001 L 509.82 184.91 L 509.91 186.17000000000002 L 510.01 187.44 L 510.11 188.71 L 510.2 189.97 L 510.27000000000004 191.24 L 510.32 192.5 L 510.36 193.77 L 510.38 195.03 L 510.40000000000003 196.3 L 510.39 197.57 L 510.35 198.83 L 510.28000000000003 200.1 L 510.2 201.36 L 510.11 202.63 L 510.03000000000003 203.89000000000001 L 509.97 205.16 L 509.93 206.43 L 509.92 207.69 L 509.93 208.96 L 509.94 210.22 L 509.97 211.49 L 509.99 212.75 L 510.0 214.02 L 509.99 215.28 L 509.98 216.55 L 509.96000000000004 217.82 L 509.95 219.08 L 509.95 220.35 L 509.97 221.61 L 509.99 222.88 L 510.01 224.14000000000001 L 510.01 225.41 L 510.01 226.68 L 510.02000000000004 227.94 L 510.05 229.21 L 510.13 230.47 L 510.3 231.74 L 510.56 233.0 L 510.93 234.27 L 511.40000000000003 235.54 L 511.94 236.8 L 512.54 238.07 L 513.17 239.33 L 513.84 240.6 L 514.58 241.86 L 515.4300000000001 243.13 L 516.4300000000001 244.39000000000001 L 517.61 245.66 L 518.96 246.93 L 520.48 248.19 L 522.12 249.46 L 523.86 250.72 L 525.66 251.99 L 527.49 253.25 L 529.28 254.52 L 530.97 255.79 L 532.47 257.05 L 533.72 258.32 L 534.6800000000001 259.58 L 535.36 260.85 L 535.83 262.11 L 536.19 263.38 L 536.55 264.65 L 536.98 265.91 L 537.48 267.18 L 538.02 268.44 L 538.51 269.71 L 538.86 270.97 L 539.0 272.24 L 538.87 273.51 L 538.44 274.77 L 537.6800000000001 276.04 L 536.61 277.3 L 535.25 278.57 L 533.69 279.83 L 532.03 281.1 L 530.41 282.36 L 528.91 283.63 L 527.6 284.90000000000003 L 526.48 286.16 L 525.52 287.43 L 524.65 288.69 L 523.8 289.96 L 522.9300000000001 291.22 L 522.02 292.49 L 521.08 293.76 L 520.15 295.02 L 519.27 296.29 L 518.46 297.55 L 517.75 298.82 L 517.11 300.08 L 516.52 301.35 L 515.94 302.62 L 515.34 303.88 L 514.71 305.15000000000003 L 514.05 306.41 L 513.41 307.68 L 512.8100000000001 308.94 L 512.3 310.21 L 511.91 311.47 L 511.62 312.74 L 511.43 314.01 L 511.32 315.27 L 511.27000000000004 316.54 L 511.25 317.8 L 511.24 319.07 L 511.23 320.33 L 511.19 321.6 L 511.12 322.87 L 511.0 324.13 L 510.85 325.40000000000003 L 510.67 326.66 L 510.46000000000004 327.93 L 510.25 329.19 L 510.04 330.46 L 509.83 331.73 L 509.65000000000003 332.99 L 509.49 334.26 L 509.38 335.52 L 509.31 336.79 L 509.28000000000003 338.05 L 509.29 339.32 L 509.32 340.58 L 509.34000000000003 341.85 L 509.36 343.12 L 509.35 344.38 L 509.32 345.65000000000003 L 509.27000000000004 346.91 L 509.23 348.18 L 509.2 349.44 L 509.19 350.71 L 509.2 351.98 L 509.23 353.24 L 509.28000000000003 354.51 L 509.33 355.77 L 509.37 357.04 L 509.41 358.3 L 509.43 359.57 L 509.43 360.84000000000003 L 509.41 362.1 L 509.37 363.37 L 509.33 364.63 L 509.29 365.90000000000003 L 509.26 367.16 L 509.24 368.43 L 509.22 369.69 L 509.21000000000004 370.96 L 509.19 372.23 L 509.17 373.49 L 509.14 374.76 L 509.11 376.02 L 509.08 377.29 L 509.05 378.55 L 509.03000000000003 379.82 L 509.02000000000004 381.09000000000003 L 509.01 382.35 L 509.0 383.62 L 509.0 384.88 Z" stroke="#000000" stroke-width="0.5" fill="#ff7f0e" /></svg>