<svg xmlns="http://www.w3.org/2000/svg" width="874.3000000000001" height="545" font-family="DejaVu Sans, Liberation Sans, Arial, sans-serif" fill="black"><rect width="100%" height="100%" fill="white" /><text x="363.8" y="538" font-size="14" text-anchor="middle">Category</text><text x="15" y="272.5" font-size="14" text-anchor="middle" transform="rotate(-90,15,272.5)">Count</text><text x="363.8" y="22" font-size="18" text-anchor="middle">TP53 / KRAS contingency</text><path d="M363.8,269 L583.8,269 A220,220 0 0,1 558.4194301593877,371.58302688278997 Z" stroke="#1f77b4" stroke-width="1" fill="#1f77b4" /><text x="470.58" y="295.42" font-size="12" text-anchor="middle">Both mutated (7.7%)</text><path d="M363.8,269 L558.4194301593877,371.58302688278997 A220,220 0 0,1 174.70570625841916,381.4426434871251 Z" stroke="#ff7f0e" stroke-width="1" fill="#ff7f0e" /><text x="366.63" y="378.96" font-size="12" text-anchor="middle">TP53 only (33.7%)</text><path d="M363.8,269 L174.70570625841916,381.4426434871251 A220,220 0 0,1 144.47509354365357,286.2216552025315 Z" stroke="#2ca02c" stroke-width="1" fill="#2ca02c" /><text x="258.96" y="302.29" font-size="12" text-anchor="middle">KRAS only (7.3%)</text><path d="M363.8,269 L144.47509354365357,286.2216552025315 A220,220 0 1,1 583.8,268.99999999999994 Z" stroke="#d62728" stroke-width="1" fill="#d62728" /><text x="359.49" y="159.08" font-size="12" text-anchor="middle">Neither (51.2%)</text><rect x="668.8000000000001" y="34" width="196.5" height="92" fill="#ffffff" /><rect x="668.8000000000001" y="34" width="196.5" height="92" fill="none" stroke="#000000" stroke-width="1" /><text x="698.8000000000001" y="53.2" font-size="12" text-anchor="start">Both mutated (7.7%)</text><rect x="678.8000000000001" y="43" width="12" height="12" fill="#1f77b4" /><text x="698.8000000000001" y="71.2" font-size="12" text-anchor="start">TP53 only (33.7%)</text><rect x="678.8000000000001" y="61" width="12" height="12" fill="#ff7f0e" /><text x="698.8000000000001" y="89.2" font-size="12" text-anchor="start">KRAS only (7.3%)</text><rect x="678.8000000000001" y="79" width="12" height="12" fill="#2ca02c" /><text x="698.8000000000001" y="107.2" font-size="12" text-anchor="start">Neither (51.2%)</text><rect x="678.8000000000001" y="97" width="12" height="12" fill="#d62728" /></svg>