<svg xmlns="http://www.w3.org/2000/svg" width="677.8000000000001" height="545" font-family="DejaVu Sans, Liberation Sans, Arial, sans-serif" fill="black"><rect width="100%" height="100%" fill="white" /><line x1="63.800000000000004" y1="494" x2="663.8000000000001" y2="494" stroke="#000000" stroke-width="1" /><line x1="63.800000000000004" y1="44" x2="63.800000000000004" y2="494" stroke="#000000" stroke-width="1" /><line x1="63.800000000000004" y1="429.71000000000004" x2="663.8000000000001" y2="429.71000000000004" stroke="#cccccc" stroke-width="1" /><line x1="63.800000000000004" y1="365.43" x2="663.8000000000001" y2="365.43" stroke="#cccccc" stroke-width="1" /><line x1="63.800000000000004" y1="301.14" x2="663.8000000000001" y2="301.14" stroke="#cccccc" stroke-width="1" /><line x1="63.800000000000004" y1="236.86" x2="663.8000000000001" y2="236.86" stroke="#cccccc" stroke-width="1" /><line x1="63.800000000000004" y1="172.57" x2="663.8000000000001" y2="172.57" stroke="#cccccc" stroke-width="1" /><line x1="63.800000000000004" y1="108.29" x2="663.8000000000001" y2="108.29" stroke="#cccccc" stroke-width="1" /><line x1="63.800000000000004" y1="44" x2="663.8000000000001" y2="44" stroke="#cccccc" stroke-width="1" /><text x="123.8" y="511" font-size="12" text-anchor="middle">Missense</text><line x1="123.8" y1="494" x2="123.8" y2="499" stroke="#000000" stroke-width="1" /><text x="183.8" y="511" font-size="12" text-anchor="middle">Nonsense</text><line x1="183.8" y1="494" x2="183.8" y2="499" stroke="#000000" stroke-width="1" /><text x="243.8" y="511" font-size="12" text-anchor="middle">Frameshift Del</text><line x1="243.8" y1="494" x2="243.8" y2="499" stroke="#000000" stroke-width="1" /><text x="303.8" y="511" font-size="12" text-anchor="middle">Splice</text><line x1="303.8" y1="494" x2="303.8" y2="499" stroke="#000000" stroke-width="1" /><text x="363.8" y="511" font-size="12" text-anchor="middle">Frameshift Ins</text><line x1="363.8" y1="494" x2="363.8" y2="499" stroke="#000000" stroke-width="1" /><text x="423.8" y="511" font-size="12" text-anchor="middle">In-Frame Del</text><line x1="423.8" y1="494" x2="423.8" y2="499" stroke="#000000" stroke-width="1" /><text x="483.8" y="511" font-size="12" text-anchor="middle">In-Frame Ins</text><line x1="483.8" y1="494" x2="483.8" y2="499" stroke="#000000" stroke-width="1" /><text x="543.8" y="511" font-size="12" text-anchor="middle">Nonstop</text><line x1="543.8" y1="494" x2="543.8" y2="499" stroke="#000000" stroke-width="1" /><line x1="58.800000000000004" y1="494" x2="63.800000000000004" y2="494" stroke="#000000" stroke-width="1" /><text x="55.800000000000004" y="498.2" font-size="12" text-anchor="end">0</text><line x1="58.800000000000004" y1="429.71000000000004" x2="63.800000000000004" y2="429.71000000000004" stroke="#000000" stroke-width="1" /><text x="55.800000000000004" y="433.91" font-size="12" text-anchor="end">500</text><line x1="58.800000000000004" y1="365.43" x2="63.800000000000004" y2="365.43" stroke="#000000" stroke-width="1" /><text x="55.800000000000004" y="369.63" font-size="12" text-anchor="end">1000</text><line x1="58.800000000000004" y1="301.14" x2="63.800000000000004" y2="301.14" stroke="#000000" stroke-width="1" /><text x="55.800000000000004" y="305.34000000000003" font-size="12" text-anchor="end">1500</text><line x1="58.800000000000004" y1="236.86" x2="63.800000000000004" y2="236.86" stroke="#000000" stroke-width="1" /><text x="55.800000000000004" y="241.06" font-size="12" text-anchor="end">2000</text><line x1="58.800000000000004" y1="172.57" x2="63.800000000000004" y2="172.57" stroke="#000000" stroke-width="1" /><text x="55.800000000000004" y="176.77" font-size="12" text-anchor="end">2500</text><line x1="58.800000000000004" y1="108.29" x2="63.800000000000004" y2="108.29" stroke="#000000" stroke-width="1" /><text x="55.800000000000004" y="112.49000000000001" font-size="12" text-anchor="end">3000</text><line x1="58.800000000000004" y1="44" x2="63.800000000000004" y2="44" stroke="#000000" stroke-width="1" /><text x="55.800000000000004" y="48.2" font-size="12" text-anchor="end">3500</text><text x="363.8" y="538" font-size="14" text-anchor="middle">Variant class</text><text x="15" y="272.5" font-size="14" text-anchor="middle" transform="rotate(-90,15,272.5)">Count</text><text x="363.8" y="22" font-size="18" text-anchor="middle">TP53 mutation classes</text><rect x="99.8" y="88.10000000000001" width="48" height="405.90000000000003" fill="#1f77b4" /><rect x="159.8" y="406.19" width="48" height="87.81" fill="#1f77b4" /><rect x="219.8" y="427.53000000000003" width="48" height="66.47" fill="#1f77b4" /><rect x="279.8" y="452.21000000000004" width="48" height="41.79" fill="#1f77b4" /><rect x="339.8" y="473.81" width="48" height="20.19" fill="#1f77b4" /><rect x="399.8" y="482.3" width="48" height="11.700000000000001" fill="#1f77b4" /><rect x="459.8" y="490.79" width="48" height="3.21" fill="#1f77b4" /><rect x="519.8" y="493.74" width="48" height="0.26" fill="#1f77b4" /></svg>