<svg xmlns="http://www.w3.org/2000/svg" width="673" height="545" font-family="DejaVu Sans, Liberation Sans, Arial, sans-serif" fill="black"><rect width="100%" height="100%" fill="white" /><line x1="59" y1="494" x2="659" y2="494" stroke="#000000" stroke-width="1" /><line x1="59" y1="44" x2="59" y2="494" stroke="#000000" stroke-width="1" /><line x1="59" y1="404" x2="659" y2="404" stroke="#cccccc" stroke-width="1" /><line x1="59" y1="314" x2="659" y2="314" stroke="#cccccc" stroke-width="1" /><line x1="59" y1="224" x2="659" y2="224" stroke="#cccccc" stroke-width="1" /><line x1="59" y1="134" x2="659" y2="134" stroke="#cccccc" stroke-width="1" /><line x1="59" y1="44" x2="659" y2="44" stroke="#cccccc" stroke-width="1" /><text x="209" y="511" font-size="12" text-anchor="middle">TP53-mutant</text><line x1="209" y1="494" x2="209" y2="499" stroke="#000000" stroke-width="1" /><text x="509" y="511" font-size="12" text-anchor="middle">TP53-wildtype</text><line x1="509" y1="494" x2="509" y2="499" stroke="#000000" stroke-width="1" /><line x1="54" y1="494" x2="59" y2="494" stroke="#000000" stroke-width="1" /><text x="51" y="498.2" font-size="12" text-anchor="end">-3</text><line x1="54" y1="404" x2="59" y2="404" stroke="#000000" stroke-width="1" /><text x="51" y="408.2" font-size="12" text-anchor="end">-2</text><line x1="54" y1="314" x2="59" y2="314" stroke="#000000" stroke-width="1" /><text x="51" y="318.2" font-size="12" text-anchor="end">-1</text><line x1="54" y1="224" x2="59" y2="224" stroke="#000000" stroke-width="1" /><text x="51" y="228.20000000000002" font-size="12" text-anchor="end">0</text><line x1="54" y1="134" x2="59" y2="134" stroke="#000000" stroke-width="1" /><text x="51" y="138.20000000000002" font-size="12" text-anchor="end">1</text><line x1="54" y1="44" x2="59" y2="44" stroke="#000000" stroke-width="1" /><text x="51" y="48.2" font-size="12" text-anchor="end">2</text><text x="359" y="538" font-size="14" text-anchor="middle">Group</text><text x="15" y="272.5" font-size="14" text-anchor="middle" transform="rotate(-90,15,272.5)">Expression</text><text x="359" y="22" font-size="18" text-anchor="middle">ERBB2 by TP53 status (brca_tcga_pan_can_atlas_2018)</text><rect x="89" y="206.99" width="240" height="91.46000000000001" fill="#1f77b4" /><line x1="89" y1="267.83" x2="329" y2="267.83" stroke="#ffffff" stroke-width="1.5" /><line x1="209" y1="422.41" x2="209" y2="298.45" stroke="#1f77b4" stroke-width="1" /><line x1="209" y1="206.99" x2="209" y2="70.69" stroke="#1f77b4" stroke-width="1" /><line x1="149" y1="422.41" x2="269" y2="422.41" stroke="#1f77b4" stroke-width="1" /><line x1="149" y1="70.69" x2="269" y2="70.69" stroke="#1f77b4" stroke-width="1" /><rect x="389" y="197.56" width="240" height="58.21" fill="#ff7f0e" /><line x1="389" y1="226.74" x2="629" y2="226.74" stroke="#ffffff" stroke-width="1.5" /><line x1="509" y1="342.12" x2="509" y2="255.77" stroke="#ff7f0e" stroke-width="1" /><line x1="509" y1="197.56" x2="509" y2="117.01" stroke="#ff7f0e" stroke-width="1" /><line x1="449" y1="342.12" x2="569" y2="342.12" stroke="#ff7f0e" stroke-width="1" /><line x1="449" y1="117.01" x2="569" y2="117.01" stroke="#ff7f0e" stroke-width="1" /></svg>