<svg xmlns="http://www.w3.org/2000/svg" width="888.1" height="545" font-family="DejaVu Sans, Liberation Sans, Arial, sans-serif" fill="black"><rect width="100%" height="100%" fill="white" /><line x1="128.6" y1="494" x2="728.6" y2="494" stroke="#000000" stroke-width="1" /><line x1="128.6" y1="44" x2="128.6" y2="494" stroke="#000000" stroke-width="1" /><text x="120.60000000000001" y="433.91" font-size="12" text-anchor="end">TP53-wildtype</text><line x1="123.60000000000001" y1="429.71000000000004" x2="128.6" y2="429.71000000000004" stroke="#000000" stroke-width="1" /><text x="120.60000000000001" y="305.34000000000003" font-size="12" text-anchor="end">TP53-mutant</text><line x1="123.60000000000001" y1="301.14" x2="128.6" y2="301.14" stroke="#000000" stroke-width="1" /><line x1="178.6" y1="494" x2="178.6" y2="499" stroke="#000000" stroke-width="1" /><text x="178.6" y="511" font-size="12" text-anchor="middle">-5</text><line x1="303.6" y1="494" x2="303.6" y2="499" stroke="#000000" stroke-width="1" /><text x="303.6" y="511" font-size="12" text-anchor="middle">-2.5</text><line x1="428.6" y1="494" x2="428.6" y2="499" stroke="#000000" stroke-width="1" /><text x="428.6" y="511" font-size="12" text-anchor="middle">0</text><line x1="553.6" y1="494" x2="553.6" y2="499" stroke="#000000" stroke-width="1" /><text x="553.6" y="511" font-size="12" text-anchor="middle">2.5</text><line x1="678.6" y1="494" x2="678.6" y2="499" stroke="#000000" stroke-width="1" /><text x="678.6" y="511" font-size="12" text-anchor="middle">5</text><text x="428.6" y="538" font-size="14" text-anchor="middle">Expression</text><text x="15" y="272.5" font-size="14" text-anchor="middle" transform="rotate(-90,15,272.5)">Group</text><text x="428.6" y="22" font-size="18" text-anchor="middle">ERBB2 by TP53 status (brca_tcga_pan_can_atlas_2018)</text><line x1="128.6" y1="301.14" x2="728.6" y2="301.14" stroke="#000000" stroke-width="0.5" /><path d="M 206.61 301.12 L 208.82 301.11 L 211.03 301.08 L 213.24 301.04 L 215.45000000000002 300.98 L 217.66 300.90000000000003 L 219.87 300.78000000000003 L 222.08 300.63 L 224.29 300.45 L 226.5 300.25 L 228.71 300.04 L 230.92000000000002 299.84000000000003 L 233.13 299.66 L 235.34 299.53000000000003 L 237.55 299.46 L 239.76 299.46 L 241.97 299.52 L 244.19 299.63 L 246.4 299.77 L 248.61 299.90000000000003 L 250.82 300.02 L 253.03 300.09000000000003 L 255.24 300.1 L 257.45 300.05 L 259.66 299.95 L 261.87 299.81 L 264.08 299.66 L 266.29 299.53000000000003 L 268.5 299.43 L 270.71 299.37 L 272.92 299.36 L 275.13 299.39 L 277.34000000000003 299.44 L 279.55 299.5 L 281.76 299.53000000000003 L 283.97 299.54 L 286.18 299.51 L 288.39 299.45 L 290.6 299.37 L 292.81 299.28000000000003 L 295.02 299.2 L 297.23 299.14 L 299.44 299.09000000000003 L 301.65000000000003 299.03000000000003 L 303.86 298.95 L 306.07 298.82 L 308.28000000000003 298.6 L 310.49 298.28000000000003 L 312.7 297.83 L 314.91 297.23 L 317.12 296.48 L 319.33 295.55 L 321.54 294.44 L 323.75 293.13 L 325.96 291.58 L 328.17 289.76 L 330.38 287.63 L 332.59000000000003 285.16 L 334.8 282.33 L 337.01 279.14 L 339.22 275.62 L 341.43 271.85 L 343.64 267.92 L 345.85 263.94 L 348.06 260.02 L 350.27 256.22 L 352.48 252.59 L 354.69 249.06 L 356.90000000000003 245.55 L 359.11 241.87 L 361.32 237.83 L 363.53000000000003 233.20000000000002 L 365.74 227.77 L 367.95 221.37 L 370.16 213.9 L 372.37 205.33 L 374.58 195.72 L 376.79 185.23 L 379.0 174.11 L 381.21 162.68 L 383.42 151.35 L 385.63 140.53 L 387.84000000000003 130.67000000000002 L 390.06 122.21000000000001 L 392.27 115.51 L 394.48 110.86 L 396.69 108.43 L 398.90000000000003 108.29 L 401.11 110.34 L 403.32 114.4 L 405.53000000000003 120.2 L 407.74 127.42 L 409.95 135.7 L 412.16 144.74 L 414.37 154.22 L 416.58 163.89000000000001 L 418.79 173.53 L 421.0 182.97 L 423.21000000000004 192.06 L 425.42 200.69 L 427.63 208.8 L 429.84000000000003 216.36 L 432.05 223.37 L 434.26 229.89000000000001 L 436.47 235.96 L 438.68 241.65 L 440.89 247.01000000000002 L 443.1 252.06 L 445.31 256.8 L 447.52 261.2 L 449.73 265.23 L 451.94 268.84000000000003 L 454.15000000000003 271.99 L 456.36 274.7 L 458.57 276.97 L 460.78000000000003 278.87 L 462.99 280.47 L 465.2 281.86 L 467.41 283.13 L 469.62 284.33 L 471.83 285.48 L 474.04 286.56 L 476.25 287.54 L 478.46000000000004 288.34000000000003 L 480.67 288.88 L 482.88 289.09000000000003 L 485.09000000000003 288.92 L 487.3 288.34000000000003 L 489.51 287.39 L 491.72 286.12 L 493.93 284.63 L 496.14 283.05 L 498.35 281.5 L 500.56 280.13 L 502.77000000000004 279.07 L 504.98 278.42 L 507.19 278.26 L 509.40000000000003 278.6 L 511.61 279.44 L 513.82 280.7 L 516.03 282.3 L 518.24 284.09000000000003 L 520.45 285.93 L 522.66 287.69 L 524.87 289.22 L 527.08 290.42 L 529.29 291.18 L 531.5 291.45 L 533.71 291.19 L 535.92 290.40000000000003 L 538.14 289.07 L 540.35 287.26 L 542.5600000000001 285.02 L 544.77 282.43 L 546.98 279.6 L 549.19 276.64 L 551.4 273.68 L 553.61 270.84000000000003 L 555.82 268.25 L 558.03 266.0 L 560.24 264.16 L 562.45 262.75 L 564.66 261.78000000000003 L 566.87 261.23 L 569.08 261.09000000000003 L 571.29 261.35 L 573.5 262.03000000000003 L 575.71 263.15 L 577.92 264.73 L 580.13 266.78000000000003 L 582.34 269.29 L 584.5500000000001 272.18 L 586.76 275.33 L 588.97 278.62 L 591.1800000000001 281.86 L 593.39 284.91 L 595.6 287.65000000000003 L 597.8100000000001 290.0 L 600.02 291.92 L 602.23 293.43 L 604.44 294.57 L 606.65 295.44 L 608.86 296.1 L 611.07 296.63 L 613.28 297.11 L 615.49 297.57 L 617.7 298.03000000000003 L 619.91 298.5 L 622.12 298.96 L 624.33 299.40000000000003 L 626.54 299.8 L 628.75 300.15000000000003 L 630.96 300.43 L 633.17 300.66 L 635.38 300.82 L 637.59 300.94 L 639.8000000000001 301.02 L 642.01 301.07 L 644.22 301.1 L 646.4300000000001 301.12 L 646.4300000000001 301.14 L 206.61 301.14 Z" stroke="none" stroke-width="0" fill="#1f77b4" fill-opacity="0.7000000000000001" /><path d="M 206.61 301.12 L 208.82 301.11 L 211.03 301.08 L 213.24 301.04 L 215.45000000000002 300.98 L 217.66 300.90000000000003 L 219.87 300.78000000000003 L 222.08 300.63 L 224.29 300.45 L 226.5 300.25 L 228.71 300.04 L 230.92000000000002 299.84000000000003 L 233.13 299.66 L 235.34 299.53000000000003 L 237.55 299.46 L 239.76 299.46 L 241.97 299.52 L 244.19 299.63 L 246.4 299.77 L 248.61 299.90000000000003 L 250.82 300.02 L 253.03 300.09000000000003 L 255.24 300.1 L 257.45 300.05 L 259.66 299.95 L 261.87 299.81 L 264.08 299.66 L 266.29 299.53000000000003 L 268.5 299.43 L 270.71 299.37 L 272.92 299.36 L 275.13 299.39 L 277.34000000000003 299.44 L 279.55 299.5 L 281.76 299.53000000000003 L 283.97 299.54 L 286.18 299.51 L 288.39 299.45 L 290.6 299.37 L 292.81 299.28000000000003 L 295.02 299.2 L 297.23 299.14 L 299.44 299.09000000000003 L 301.65000000000003 299.03000000000003 L 303.86 298.95 L 306.07 298.82 L 308.28000000000003 298.6 L 310.49 298.28000000000003 L 312.7 297.83 L 314.91 297.23 L 317.12 296.48 L 319.33 295.55 L 321.54 294.44 L 323.75 293.13 L 325.96 291.58 L 328.17 289.76 L 330.38 287.63 L 332.59000000000003 285.16 L 334.8 282.33 L 337.01 279.14 L 339.22 275.62 L 341.43 271.85 L 343.64 267.92 L 345.85 263.94 L 348.06 260.02 L 350.27 256.22 L 352.48 252.59 L 354.69 249.06 L 356.90000000000003 245.55 L 359.11 241.87 L 361.32 237.83 L 363.53000000000003 233.20000000000002 L 365.74 227.77 L 367.95 221.37 L 370.16 213.9 L 372.37 205.33 L 374.58 195.72 L 376.79 185.23 L 379.0 174.11 L 381.21 162.68 L 383.42 151.35 L 385.63 140.53 L 387.84000000000003 130.67000000000002 L 390.06 122.21000000000001 L 392.27 115.51 L 394.48 110.86 L 396.69 108.43 L 398.90000000000003 108.29 L 401.11 110.34 L 403.32 114.4 L 405.53000000000003 120.2 L 407.74 127.42 L 409.95 135.7 L 412.16 144.74 L 414.37 154.22 L 416.58 163.89000000000001 L 418.79 173.53 L 421.0 182.97 L 423.21000000000004 192.06 L 425.42 200.69 L 427.63 208.8 L 429.84000000000003 216.36 L 432.05 223.37 L 434.26 229.89000000000001 L 436.47 235.96 L 438.68 241.65 L 440.89 247.01000000000002 L 443.1 252.06 L 445.31 256.8 L 447.52 261.2 L 449.73 265.23 L 451.94 268.84000000000003 L 454.15000000000003 271.99 L 456.36 274.7 L 458.57 276.97 L 460.78000000000003 278.87 L 462.99 280.47 L 465.2 281.86 L 467.41 283.13 L 469.62 284.33 L 471.83 285.48 L 474.04 286.56 L 476.25 287.54 L 478.46000000000004 288.34000000000003 L 480.67 288.88 L 482.88 289.09000000000003 L 485.09000000000003 288.92 L 487.3 288.34000000000003 L 489.51 287.39 L 491.72 286.12 L 493.93 284.63 L 496.14 283.05 L 498.35 281.5 L 500.56 280.13 L 502.77000000000004 279.07 L 504.98 278.42 L 507.19 278.26 L 509.40000000000003 278.6 L 511.61 279.44 L 513.82 280.7 L 516.03 282.3 L 518.24 284.09000000000003 L 520.45 285.93 L 522.66 287.69 L 524.87 289.22 L 527.08 290.42 L 529.29 291.18 L 531.5 291.45 L 533.71 291.19 L 535.92 290.40000000000003 L 538.14 289.07 L 540.35 287.26 L 542.5600000000001 285.02 L 544.77 282.43 L 546.98 279.6 L 549.19 276.64 L 551.4 273.68 L 553.61 270.84000000000003 L 555.82 268.25 L 558.03 266.0 L 560.24 264.16 L 562.45 262.75 L 564.66 261.78000000000003 L 566.87 261.23 L 569.08 261.09000000000003 L 571.29 261.35 L 573.5 262.03000000000003 L 575.71 263.15 L 577.92 264.73 L 580.13 266.78000000000003 L 582.34 269.29 L 584.5500000000001 272.18 L 586.76 275.33 L 588.97 278.62 L 591.1800000000001 281.86 L 593.39 284.91 L 595.6 287.65000000000003 L 597.8100000000001 290.0 L 600.02 291.92 L 602.23 293.43 L 604.44 294.57 L 606.65 295.44 L 608.86 296.1 L 611.07 296.63 L 613.28 297.11 L 615.49 297.57 L 617.7 298.03000000000003 L 619.91 298.5 L 622.12 298.96 L 624.33 299.40000000000003 L 626.54 299.8 L 628.75 300.15000000000003 L 630.96 300.43 L 633.17 300.66 L 635.38 300.82 L 637.59 300.94 L 639.8000000000001 301.02 L 642.01 301.07 L 644.22 301.1 L 646.4300000000001 301.12" stroke="#1f77b4" stroke-width="1.5" fill="none" /><line x1="128.6" y1="429.71000000000004" x2="728.6" y2="429.71000000000004" stroke="#000000" stroke-width="0.5" /><path d="M 274.09000000000003 429.7 L 275.78000000000003 429.69 L 277.46 429.65000000000003 L 279.15000000000003 429.6 L 280.84000000000003 429.51 L 282.53000000000003 429.37 L 284.21 429.2 L 285.90000000000003 429.0 L 287.59000000000003 428.79 L 289.28000000000003 428.61 L 290.96 428.46000000000004 L 292.65000000000003 428.36 L 294.34000000000003 428.28000000000003 L 296.03000000000003 428.18 L 297.72 428.03000000000003 L 299.40000000000003 427.82 L 301.09000000000003 427.57 L 302.78000000000003 427.3 L 304.47 427.09000000000003 L 306.15000000000003 426.97 L 307.84000000000003 426.97 L 309.53000000000003 427.09000000000003 L 311.22 427.32 L 312.90000000000003 427.61 L 314.59000000000003 427.93 L 316.28000000000003 428.22 L 317.97 428.42 L 319.65000000000003 428.5 L 321.34000000000003 428.43 L 323.03000000000003 428.24 L 324.72 427.96000000000004 L 326.40000000000003 427.69 L 328.09000000000003 427.49 L 329.78000000000003 427.43 L 331.47 427.51 L 333.15000000000003 427.67 L 334.84000000000003 427.84000000000003 L 336.53000000000003 427.89 L 338.22 427.73 L 339.90000000000003 427.29 L 341.59000000000003 426.55 L 343.28000000000003 425.55 L 344.97 424.36 L 346.65000000000003 423.04 L 348.34000000000003 421.67 L 350.03000000000003 420.31 L 351.72 419.01 L 353.40000000000003 417.83 L 355.09000000000003 416.84000000000003 L 356.78000000000003 416.1 L 358.47 415.62 L 360.15000000000003 415.38 L 361.84000000000003 415.31 L 363.53000000000003 415.26 L 365.22 415.13 L 366.90000000000003 414.77 L 368.59000000000003 414.06 L 370.28000000000003 412.86 L 371.97 411.03000000000003 L 373.65000000000003 408.49 L 375.34000000000003 405.23 L 377.03000000000003 401.40000000000003 L 378.72 397.23 L 380.40000000000003 393.0 L 382.09000000000003 388.93 L 383.78000000000003 385.07 L 385.47 381.36 L 387.15000000000003 377.58 L 388.84000000000003 373.49 L 390.53000000000003 368.90000000000003 L 392.22 363.72 L 393.91 358.04 L 395.59000000000003 352.05 L 397.28000000000003 346.02 L 398.97 340.17 L 400.66 334.58 L 402.34000000000003 329.14 L 404.03000000000003 323.54 L 405.72 317.35 L 407.41 310.16 L 409.09000000000003 301.73 L 410.78000000000003 292.1 L 412.47 281.65000000000003 L 414.16 271.02 L 415.84000000000003 260.98 L 417.53000000000003 252.25 L 419.22 245.31 L 420.91 240.45000000000002 L 422.59000000000003 237.67000000000002 L 424.28000000000003 236.86 L 425.97 237.77 L 427.66 240.03 L 429.34000000000003 243.18 L 431.03000000000003 246.63 L 432.72 249.86 L 434.41 252.59 L 436.09000000000003 254.89000000000001 L 437.78000000000003 257.22 L 439.47 260.24 L 441.16 264.61 L 442.84000000000003 270.78000000000003 L 444.53000000000003 278.83 L 446.22 288.5 L 447.91 299.35 L 449.59000000000003 310.87 L 451.28000000000003 322.6 L 452.97 334.19 L 454.66 345.37 L 456.34000000000003 355.93 L 458.03000000000003 365.66 L 459.72 374.37 L 461.41 381.94 L 463.09000000000003 388.38 L 464.78000000000003 393.85 L 466.47 398.6 L 468.16 402.93 L 469.84000000000003 406.98 L 471.53000000000003 410.8 L 473.22 414.28000000000003 L 474.91 417.29 L 476.59000000000003 419.66 L 478.28000000000003 421.37 L 479.97 422.44 L 481.66 422.98 L 483.34000000000003 423.18 L 485.03000000000003 423.2 L 486.72 423.2 L 488.41 423.25 L 490.09000000000003 423.36 L 491.78000000000003 423.51 L 493.47 423.61 L 495.16 423.63 L 496.85 423.56 L 498.53000000000003 423.44 L 500.22 423.34000000000003 L 501.91 423.3 L 503.6 423.35 L 505.28000000000003 423.48 L 506.97 423.64 L 508.66 423.77 L 510.35 423.81 L 512.03 423.74 L 513.72 423.51 L 515.41 423.12 L 517.1 422.6 L 518.78 422.02 L 520.47 421.47 L 522.16 421.04 L 523.85 420.79 L 525.53 420.73 L 527.22 420.81 L 528.91 420.99 L 530.6 421.24 L 532.28 421.57 L 533.97 422.01 L 535.66 422.57 L 537.35 423.22 L 539.03 423.88 L 540.72 424.45 L 542.41 424.8 L 544.1 424.88 L 545.78 424.68 L 547.47 424.21000000000004 L 549.16 423.55 L 550.85 422.8 L 552.53 422.07 L 554.22 421.46000000000004 L 555.91 421.07 L 557.6 420.92 L 559.28 420.99 L 560.97 421.23 L 562.66 421.54 L 564.35 421.82 L 566.03 422.02 L 567.72 422.08 L 569.41 421.95 L 571.1 421.64 L 572.78 421.13 L 574.47 420.48 L 576.16 419.8 L 577.85 419.25 L 579.53 418.98 L 581.22 419.14 L 582.91 419.75 L 584.6 420.74 L 586.28 421.99 L 587.97 423.32 L 589.66 424.59000000000003 L 591.35 425.73 L 593.04 426.7 L 594.72 427.49 L 596.41 428.13 L 598.1 428.63 L 599.79 429.01 L 601.47 429.28000000000003 L 603.16 429.47 L 604.85 429.58 L 606.54 429.65000000000003 L 608.22 429.68 L 609.91 429.7 L 609.91 429.71000000000004 L 274.09000000000003 429.71000000000004 Z" stroke="none" stroke-width="0" fill="#ff7f0e" fill-opacity="0.7000000000000001" /><path d="M 274.09000000000003 429.7 L 275.78000000000003 429.69 L 277.46 429.65000000000003 L 279.15000000000003 429.6 L 280.84000000000003 429.51 L 282.53000000000003 429.37 L 284.21 429.2 L 285.90000000000003 429.0 L 287.59000000000003 428.79 L 289.28000000000003 428.61 L 290.96 428.46000000000004 L 292.65000000000003 428.36 L 294.34000000000003 428.28000000000003 L 296.03000000000003 428.18 L 297.72 428.03000000000003 L 299.40000000000003 427.82 L 301.09000000000003 427.57 L 302.78000000000003 427.3 L 304.47 427.09000000000003 L 306.15000000000003 426.97 L 307.84000000000003 426.97 L 309.53000000000003 427.09000000000003 L 311.22 427.32 L 312.90000000000003 427.61 L 314.59000000000003 427.93 L 316.28000000000003 428.22 L 317.97 428.42 L 319.65000000000003 428.5 L 321.34000000000003 428.43 L 323.03000000000003 428.24 L 324.72 427.96000000000004 L 326.40000000000003 427.69 L 328.09000000000003 427.49 L 329.78000000000003 427.43 L 331.47 427.51 L 333.15000000000003 427.67 L 334.84000000000003 427.84000000000003 L 336.53000000000003 427.89 L 338.22 427.73 L 339.90000000000003 427.29 L 341.59000000000003 426.55 L 343.28000000000003 425.55 L 344.97 424.36 L 346.65000000000003 423.04 L 348.34000000000003 421.67 L 350.03000000000003 420.31 L 351.72 419.01 L 353.40000000000003 417.83 L 355.09000000000003 416.84000000000003 L 356.78000000000003 416.1 L 358.47 415.62 L 360.15000000000003 415.38 L 361.84000000000003 415.31 L 363.53000000000003 415.26 L 365.22 415.13 L 366.90000000000003 414.77 L 368.59000000000003 414.06 L 370.28000000000003 412.86 L 371.97 411.03000000000003 L 373.65000000000003 408.49 L 375.34000000000003 405.23 L 377.03000000000003 401.40000000000003 L 378.72 397.23 L 380.40000000000003 393.0 L 382.09000000000003 388.93 L 383.78000000000003 385.07 L 385.47 381.36 L 387.15000000000003 377.58 L 388.84000000000003 373.49 L 390.53000000000003 368.90000000000003 L 392.22 363.72 L 393.91 358.04 L 395.59000000000003 352.05 L 397.28000000000003 346.02 L 398.97 340.17 L 400.66 334.58 L 402.34000000000003 329.14 L 404.03000000000003 323.54 L 405.72 317.35 L 407.41 310.16 L 409.09000000000003 301.73 L 410.78000000000003 292.1 L 412.47 281.65000000000003 L 414.16 271.02 L 415.84000000000003 260.98 L 417.53000000000003 252.25 L 419.22 245.31 L 420.91 240.45000000000002 L 422.59000000000003 237.67000000000002 L 424.28000000000003 236.86 L 425.97 237.77 L 427.66 240.03 L 429.34000000000003 243.18 L 431.03000000000003 246.63 L 432.72 249.86 L 434.41 252.59 L 436.09000000000003 254.89000000000001 L 437.78000000000003 257.22 L 439.47 260.24 L 441.16 264.61 L 442.84000000000003 270.78000000000003 L 444.53000000000003 278.83 L 446.22 288.5 L 447.91 299.35 L 449.59000000000003 310.87 L 451.28000000000003 322.6 L 452.97 334.19 L 454.66 345.37 L 456.34000000000003 355.93 L 458.03000000000003 365.66 L 459.72 374.37 L 461.41 381.94 L 463.09000000000003 388.38 L 464.78000000000003 393.85 L 466.47 398.6 L 468.16 402.93 L 469.84000000000003 406.98 L 471.53000000000003 410.8 L 473.22 414.28000000000003 L 474.91 417.29 L 476.59000000000003 419.66 L 478.28000000000003 421.37 L 479.97 422.44 L 481.66 422.98 L 483.34000000000003 423.18 L 485.03000000000003 423.2 L 486.72 423.2 L 488.41 423.25 L 490.09000000000003 423.36 L 491.78000000000003 423.51 L 493.47 423.61 L 495.16 423.63 L 496.85 423.56 L 498.53000000000003 423.44 L 500.22 423.34000000000003 L 501.91 423.3 L 503.6 423.35 L 505.28000000000003 423.48 L 506.97 423.64 L 508.66 423.77 L 510.35 423.81 L 512.03 423.74 L 513.72 423.51 L 515.41 423.12 L 517.1 422.6 L 518.78 422.02 L 520.47 421.47 L 522.16 421.04 L 523.85 420.79 L 525.53 420.73 L 527.22 420.81 L 528.91 420.99 L 530.6 421.24 L 532.28 421.57 L 533.97 422.01 L 535.66 422.57 L 537.35 423.22 L 539.03 423.88 L 540.72 424.45 L 542.41 424.8 L 544.1 424.88 L 545.78 424.68 L 547.47 424.21000000000004 L 549.16 423.55 L 550.85 422.8 L 552.53 422.07 L 554.22 421.46000000000004 L 555.91 421.07 L 557.6 420.92 L 559.28 420.99 L 560.97 421.23 L 562.66 421.54 L 564.35 421.82 L 566.03 422.02 L 567.72 422.08 L 569.41 421.95 L 571.1 421.64 L 572.78 421.13 L 574.47 420.48 L 576.16 419.8 L 577.85 419.25 L 579.53 418.98 L 581.22 419.14 L 582.91 419.75 L 584.6 420.74 L 586.28 421.99 L 587.97 423.32 L 589.66 424.59000000000003 L 591.35 425.73 L 593.04 426.7 L 594.72 427.49 L 596.41 428.13 L 598.1 428.63 L 599.79 429.01 L 601.47 429.28000000000003 L 603.16 429.47 L 604.85 429.58 L 606.54 429.65000000000003 L 608.22 429.68 L 609.91 429.7" stroke="#ff7f0e" stroke-width="1.5" fill="none" /><rect x="733.6" y="34" width="145.5" height="56" fill="#ffffff" /><rect x="733.6" y="34" width="145.5" height="56" fill="none" stroke="#000000" stroke-width="1" /><text x="763.6" y="53.2" font-size="12" text-anchor="start">TP53-mutant</text><rect x="743.6" y="43" width="12" height="12" fill="#1f77b4" /><text x="763.6" y="71.2" font-size="12" text-anchor="start">TP53-wildtype</text><rect x="743.6" y="61" width="12" height="12" fill="#ff7f0e" /></svg>