<svg xmlns="http://www.w3.org/2000/svg" width="818.5" height="545" font-family="DejaVu Sans, Liberation Sans, Arial, sans-serif" fill="black"><rect width="100%" height="100%" fill="white" /><line x1="59" y1="494" x2="659" y2="494" stroke="#000000" stroke-width="1" /><line x1="59" y1="44" x2="59" y2="494" stroke="#000000" stroke-width="1" /><line x1="179" y1="44" x2="179" y2="494" stroke="#cccccc" stroke-width="1" /><line x1="299" y1="44" x2="299" y2="494" stroke="#cccccc" stroke-width="1" /><line x1="419" y1="44" x2="419" y2="494" stroke="#cccccc" stroke-width="1" /><line x1="539" y1="44" x2="539" y2="494" stroke="#cccccc" stroke-width="1" /><line x1="659" y1="44" x2="659" y2="494" stroke="#cccccc" stroke-width="1" /><line x1="59" y1="400.25" x2="659" y2="400.25" stroke="#cccccc" stroke-width="1" /><line x1="59" y1="306.5" x2="659" y2="306.5" stroke="#cccccc" stroke-width="1" /><line x1="59" y1="212.75" x2="659" y2="212.75" stroke="#cccccc" stroke-width="1" /><line x1="59" y1="119" x2="659" y2="119" stroke="#cccccc" stroke-width="1" /><line x1="59" y1="494" x2="59" y2="499" stroke="#000000" stroke-width="1" /><text x="59" y="511" font-size="12" text-anchor="middle">0</text><line x1="179" y1="494" x2="179" y2="499" stroke="#000000" stroke-width="1" /><text x="179" y="511" font-size="12" text-anchor="middle">10</text><line x1="299" y1="494" x2="299" y2="499" stroke="#000000" stroke-width="1" /><text x="299" y="511" font-size="12" text-anchor="middle">20</text><line x1="419" y1="494" x2="419" y2="499" stroke="#000000" stroke-width="1" /><text x="419" y="511" font-size="12" text-anchor="middle">30</text><line x1="539" y1="494" x2="539" y2="499" stroke="#000000" stroke-width="1" /><text x="539" y="511" font-size="12" text-anchor="middle">40</text><line x1="659" y1="494" x2="659" y2="499" stroke="#000000" stroke-width="1" /><text x="659" y="511" font-size="12" text-anchor="middle">50</text><line x1="54" y1="494" x2="59" y2="494" stroke="#000000" stroke-width="1" /><text x="51" y="498.2" font-size="12" text-anchor="end">0</text><line x1="54" y1="400.25" x2="59" y2="400.25" stroke="#000000" stroke-width="1" /><text x="51" y="404.45" font-size="12" text-anchor="end">0.25</text><line x1="54" y1="306.5" x2="59" y2="306.5" stroke="#000000" stroke-width="1" /><text x="51" y="310.7" font-size="12" text-anchor="end">0.5</text><line x1="54" y1="212.75" x2="59" y2="212.75" stroke="#000000" stroke-width="1" /><text x="51" y="216.95000000000002" font-size="12" text-anchor="end">0.75</text><line x1="54" y1="119" x2="59" y2="119" stroke="#000000" stroke-width="1" /><text x="51" y="123.2" font-size="12" text-anchor="end">1</text><text x="359" y="538" font-size="14" text-anchor="middle">Time (months)</text><text x="15" y="272.5" font-size="14" text-anchor="middle" transform="rotate(-90,15,272.5)">Survival probability</text><text x="359" y="22" font-size="18" text-anchor="middle">TP53 Overall Survival Kaplan-Meier</text><path d="M 59.0 119.0 L 59.36 119.0 L 59.36 119.11 L 60.56 119.11 L 60.56 119.23 L 60.92 119.23 L 60.92 119.45 L 62.120000000000005 119.45 L 62.120000000000005 119.57000000000001 L 62.6 119.57000000000001 L 62.6 119.68 L 62.96 119.68 L 62.96 119.79 L 63.32 119.79 L 63.32 120.02 L 63.68 120.02 L 63.68 120.13 L 64.16 120.13 L 64.16 120.25 L 64.52 120.25 L 64.52 120.36 L 64.88 120.36 L 64.88 120.7 L 65.72 120.7 L 65.72 120.93 L 66.08 120.93 L 66.08 121.05 L 66.44 121.05 L 66.44 121.16 L 66.92 121.16 L 66.92 121.27 L 67.28 121.27 L 67.28 121.39 L 67.64 121.39 L 67.64 121.85000000000001 L 68.12 121.85000000000001 L 68.12 122.08 L 68.84 122.08 L 68.84 122.19 L 69.68 122.19 L 69.68 122.42 L 70.04 122.42 L 70.04 122.54 L 70.4 122.54 L 70.4 123.0 L 70.88 123.0 L 70.88 123.46000000000001 L 71.60000000000001 123.46000000000001 L 71.60000000000001 123.58 L 71.96000000000001 123.58 L 71.96000000000001 123.69 L 72.44 123.69 L 72.44 123.93 L 72.8 123.93 L 72.8 124.04 L 73.16 124.04 L 73.16 124.27 L 73.64 124.27 L 73.64 124.51 L 74.36 124.51 L 74.36 124.62 L 74.72 124.62 L 74.72 124.85000000000001 L 76.4 124.85000000000001 L 76.4 125.32000000000001 L 76.76 125.32000000000001 L 76.76 125.44 L 77.12 125.44 L 77.12 125.79 L 77.60000000000001 125.79 L 77.60000000000001 126.02 L 77.96000000000001 126.02 L 77.96000000000001 126.14 L 78.32000000000001 126.14 L 78.32000000000001 126.37 L 78.68 126.37 L 78.68 126.49000000000001 L 79.16 126.49000000000001 L 79.16 126.60000000000001 L 79.52 126.60000000000001 L 79.52 126.84 L 79.88 126.84 L 79.88 126.95 L 80.36 126.95 L 80.36 127.07000000000001 L 80.72 127.07000000000001 L 80.72 127.42 L 81.08 127.42 L 81.08 127.89 L 81.44 127.89 L 81.44 128.01 L 81.92 128.01 L 81.92 128.83 L 82.28 128.83 L 82.28 129.07 L 82.64 129.07 L 82.64 129.19 L 83.12 129.19 L 83.12 129.3 L 83.48 129.3 L 83.48 129.66 L 83.84 129.66 L 83.84 129.89000000000001 L 84.2 129.89000000000001 L 84.2 130.13 L 84.68 130.13 L 84.68 130.49 L 85.04 130.49 L 85.04 130.6 L 85.4 130.6 L 85.4 130.84 L 85.88 130.84 L 85.88 131.2 L 86.24 131.2 L 86.24 131.43 L 86.60000000000001 131.43 L 86.60000000000001 131.79 L 86.96000000000001 131.79 L 86.96000000000001 132.26 L 87.44 132.26 L 87.44 132.5 L 87.8 132.5 L 87.8 132.74 L 88.16 132.74 L 88.16 133.09 L 88.64 133.09 L 88.64 133.33 L 89.36 133.33 L 89.36 133.57 L 90.2 133.57 L 90.2 134.16 L 90.56 134.16 L 90.56 134.4 L 90.92 134.4 L 90.92 134.51 L 91.4 134.51 L 91.4 134.75 L 91.76 134.75 L 91.76 134.99 L 92.12 134.99 L 92.12 135.58 L 92.48 135.58 L 92.48 135.82 L 92.96000000000001 135.82 L 92.96000000000001 136.18 L 93.32000000000001 136.18 L 93.32000000000001 136.42000000000002 L 94.16 136.42000000000002 L 94.16 136.66 L 94.52 136.66 L 94.52 137.02 L 94.88 137.02 L 94.88 137.49 L 95.24 137.49 L 95.24 137.85 L 95.72 137.85 L 95.72 137.97 L 96.44 137.97 L 96.44 138.21 L 96.92 138.21 L 96.92 138.69 L 97.28 138.69 L 97.28 139.05 L 97.64 139.05 L 97.64 139.53 L 98.0 139.53 L 98.0 139.89000000000001 L 98.48 139.89000000000001 L 98.48 140.13 L 98.84 140.13 L 98.84 140.25 L 99.2 140.25 L 99.2 140.62 L 99.68 140.62 L 99.68 141.22 L 100.04 141.22 L 100.04 141.58 L 100.76 141.58 L 100.76 142.06 L 101.24000000000001 142.06 L 101.24000000000001 142.18 L 101.60000000000001 142.18 L 101.60000000000001 142.55 L 101.96000000000001 142.55 L 101.96000000000001 142.79 L 102.44 142.79 L 102.44 143.27 L 102.8 143.27 L 102.8 143.39000000000001 L 103.16 143.39000000000001 L 103.16 143.76 L 103.52 143.76 L 103.52 143.88 L 104.0 143.88 L 104.0 144.12 L 104.36 144.12 L 104.36 144.48 L 104.72 144.48 L 104.72 144.85 L 105.2 144.85 L 105.2 145.09 L 105.56 145.09 L 105.56 145.33 L 105.92 145.33 L 105.92 145.58 L 106.28 145.58 L 106.28 145.94 L 106.76 145.94 L 106.76 146.06 L 107.12 146.06 L 107.12 146.31 L 107.96000000000001 146.31 L 107.96000000000001 147.53 L 108.32000000000001 147.53 L 108.32000000000001 147.89000000000001 L 108.68 147.89000000000001 L 108.68 148.14000000000001 L 109.04 148.14000000000001 L 109.04 148.38 L 109.52 148.38 L 109.52 148.62 L 109.88 148.62 L 109.88 148.87 L 110.24000000000001 148.87 L 110.24000000000001 149.24 L 110.72 149.24 L 110.72 149.36 L 111.08 149.36 L 111.08 150.09 L 111.44 150.09 L 111.44 150.58 L 112.28 150.58 L 112.28 150.95000000000002 L 112.64 150.95000000000002 L 112.64 151.20000000000002 L 113.0 151.20000000000002 L 113.0 151.69 L 113.48 151.69 L 113.48 151.94 L 113.84 151.94 L 113.84 152.43 L 114.2 152.43 L 114.2 152.68 L 114.68 152.68 L 114.68 152.8 L 115.04 152.8 L 115.04 153.3 L 115.4 153.3 L 115.4 153.42000000000002 L 115.76 153.42000000000002 L 115.76 154.16 L 116.24000000000001 154.16 L 116.24000000000001 154.41 L 116.96000000000001 154.41 L 116.96000000000001 154.66 L 117.44 154.66 L 117.44 155.03 L 117.8 155.03 L 117.8 155.53 L 118.16 155.53 L 118.16 155.9 L 118.52 155.9 L 118.52 156.03 L 119.0 156.03 L 119.0 156.28 L 119.36 156.28 L 119.36 156.9 L 119.72 156.9 L 119.72 157.4 L 120.2 157.4 L 120.2 157.53 L 120.56 157.53 L 120.56 157.66 L 120.92 157.66 L 120.92 157.78 L 121.28 157.78 L 121.28 158.03 L 121.76 158.03 L 121.76 158.16 L 122.12 158.16 L 122.12 158.41 L 122.48 158.41 L 122.48 158.66 L 122.96000000000001 158.66 L 122.96000000000001 159.17000000000002 L 123.32000000000001 159.17000000000002 L 123.32000000000001 159.42000000000002 L 123.68 159.42000000000002 L 123.68 159.67000000000002 L 124.04 159.67000000000002 L 124.04 160.31 L 124.52 160.31 L 124.52 160.56 L 124.88000000000001 160.56 L 124.88000000000001 160.69 L 125.24000000000001 160.69 L 125.24000000000001 161.46 L 125.72 161.46 L 125.72 161.97 L 126.08 161.97 L 126.08 162.61 L 126.44 162.61 L 126.44 162.74 L 126.8 162.74 L 126.8 163.0 L 127.28 163.0 L 127.28 163.51 L 128.0 163.51 L 128.0 163.77 L 128.48 163.77 L 128.48 163.9 L 128.84 163.9 L 128.84 164.29 L 129.56 164.29 L 129.56 164.42000000000002 L 130.04 164.42000000000002 L 130.04 164.68 L 130.4 164.68 L 130.4 165.07 L 130.76 165.07 L 130.76 165.85 L 131.24 165.85 L 131.24 166.11 L 131.6 166.11 L 131.6 166.37 L 131.96 166.37 L 131.96 166.76 L 132.32 166.76 L 132.32 167.03 L 132.8 167.03 L 132.8 167.29 L 133.16 167.29 L 133.16 167.68 L 133.52 167.68 L 133.52 168.47 L 134.0 168.47 L 134.0 169.26 L 134.36 169.26 L 134.36 169.52 L 134.72 169.52 L 134.72 169.66 L 135.08 169.66 L 135.08 169.79 L 135.56 169.79 L 135.56 170.19 L 135.92000000000002 170.19 L 135.92000000000002 170.72 L 136.28 170.72 L 136.28 170.98 L 136.76 170.98 L 136.76 171.38 L 137.12 171.38 L 137.12 171.52 L 137.48 171.52 L 137.48 171.92000000000002 L 137.84 171.92000000000002 L 137.84 172.18 L 138.32 172.18 L 138.32 172.59 L 138.68 172.59 L 138.68 172.99 L 139.04 172.99 L 139.04 173.12 L 139.52 173.12 L 139.52 173.53 L 139.88 173.53 L 139.88 173.93 L 140.24 173.93 L 140.24 174.34 L 140.6 174.34 L 140.6 174.75 L 141.08 174.75 L 141.08 175.29 L 141.44 175.29 L 141.44 175.70000000000002 L 141.8 175.70000000000002 L 141.8 176.11 L 142.28 176.11 L 142.28 176.66 L 142.64000000000001 176.66 L 142.64000000000001 177.21 L 143.0 177.21 L 143.0 177.48 L 143.36 177.48 L 143.36 177.76 L 144.20000000000002 177.76 L 144.20000000000002 178.17000000000002 L 144.56 178.17000000000002 L 144.56 178.31 L 145.04 178.31 L 145.04 178.45000000000002 L 145.4 178.45000000000002 L 145.4 178.86 L 145.76 178.86 L 145.76 179.56 L 146.12 179.56 L 146.12 179.83 L 146.6 179.83 L 146.6 179.97 L 146.96 179.97 L 146.96 180.39000000000001 L 147.32 180.39000000000001 L 147.32 180.53 L 147.8 180.53 L 147.8 181.23 L 148.16 181.23 L 148.16 181.65 L 148.52 181.65 L 148.52 182.22 L 149.0 182.22 L 149.0 182.5 L 149.36 182.5 L 149.36 182.64000000000001 L 149.72 182.64000000000001 L 149.72 183.06 L 150.08 183.06 L 150.08 183.35 L 150.56 183.35 L 150.56 183.49 L 150.92000000000002 183.49 L 150.92000000000002 184.20000000000002 L 151.28 184.20000000000002 L 151.28 184.77 L 151.76 184.77 L 151.76 184.91 L 152.12 184.91 L 152.12 185.05 L 152.48 185.05 L 152.48 185.19 L 152.84 185.19 L 152.84 185.62 L 153.32 185.62 L 153.32 185.91 L 153.68 185.91 L 153.68 186.20000000000002 L 154.04 186.20000000000002 L 154.04 187.06 L 154.52 187.06 L 154.52 187.5 L 154.88 187.5 L 154.88 187.64000000000001 L 155.24 187.64000000000001 L 155.24 188.23 L 156.08 188.23 L 156.08 188.37 L 156.44 188.37 L 156.44 188.52 L 156.8 188.52 L 156.8 188.66 L 157.28 188.66 L 157.28 188.96 L 157.64000000000001 188.96 L 157.64000000000001 189.25 L 158.0 189.25 L 158.0 189.99 L 158.36 189.99 L 158.36 190.43 L 158.84 190.43 L 158.84 190.73 L 159.20000000000002 190.73 L 159.20000000000002 191.17000000000002 L 160.04 191.17000000000002 L 160.04 191.47 L 160.4 191.47 L 160.4 191.92000000000002 L 160.76 191.92000000000002 L 160.76 192.37 L 161.12 192.37 L 161.12 192.81 L 161.6 192.81 L 161.6 192.96 L 161.96 192.96 L 161.96 194.02 L 162.32 194.02 L 162.32 194.17000000000002 L 162.8 194.17000000000002 L 162.8 194.77 L 163.16 194.77 L 163.16 195.22 L 163.52 195.22 L 163.52 195.67000000000002 L 163.88 195.67000000000002 L 163.88 195.98000000000002 L 164.36 195.98000000000002 L 164.36 196.28 L 164.72 196.28 L 164.72 196.44 L 165.08 196.44 L 165.08 196.9 L 165.56 196.9 L 165.56 197.05 L 166.28 197.05 L 166.28 197.36 L 166.64000000000001 197.36 L 166.64000000000001 198.13 L 167.48 198.13 L 167.48 198.6 L 167.84 198.6 L 167.84 199.07 L 168.32 199.07 L 168.32 199.38 L 168.68 199.38 L 168.68 200.32 L 169.04 200.32 L 169.04 200.63 L 169.4 200.63 L 169.4 201.1 L 169.88 201.1 L 169.88 201.42000000000002 L 170.24 201.42000000000002 L 170.24 201.57 L 170.6 201.57 L 170.6 201.89000000000001 L 171.08 201.89000000000001 L 171.08 202.53 L 171.44 202.53 L 171.44 202.84 L 172.16 202.84 L 172.16 203.16 L 172.64000000000001 203.16 L 172.64000000000001 203.32 L 173.0 203.32 L 173.0 203.96 L 173.36 203.96 L 173.36 204.6 L 173.84 204.6 L 173.84 204.91 L 174.20000000000002 204.91 L 174.20000000000002 205.39000000000001 L 174.56 205.39000000000001 L 174.56 205.55 L 174.92000000000002 205.55 L 174.92000000000002 205.72 L 175.4 205.72 L 175.4 206.04 L 176.12 206.04 L 176.12 206.36 L 176.6 206.36 L 176.6 206.85 L 176.96 206.85 L 176.96 207.82 L 177.32 207.82 L 177.32 208.47 L 177.68 208.47 L 177.68 208.96 L 178.16 208.96 L 178.16 209.61 L 178.52 209.61 L 178.52 210.27 L 178.88 210.27 L 178.88 210.76 L 179.36 210.76 L 179.36 211.74 L 179.72 211.74 L 179.72 212.07 L 180.08 212.07 L 180.08 212.4 L 180.44 212.4 L 180.44 212.74 L 181.28 212.74 L 181.28 213.07 L 181.64000000000001 213.07 L 181.64000000000001 213.24 L 182.12 213.24 L 182.12 213.74 L 182.48 213.74 L 182.48 214.41 L 182.84 214.41 L 182.84 214.74 L 183.32 214.74 L 183.32 215.25 L 183.68 215.25 L 183.68 215.58 L 184.04 215.58 L 184.04 215.75 L 184.4 215.75 L 184.4 216.26 L 184.88 216.26 L 184.88 216.94 L 185.24 216.94 L 185.24 217.28 L 185.6 217.28 L 185.6 217.45000000000002 L 186.44 217.45000000000002 L 186.44 218.31 L 186.8 218.31 L 186.8 219.52 L 187.16 219.52 L 187.16 219.87 L 187.64000000000001 219.87 L 187.64000000000001 220.56 L 188.0 220.56 L 188.0 220.91 L 189.92000000000002 220.91 L 189.92000000000002 221.08 L 190.4 221.08 L 190.4 221.61 L 190.76 221.61 L 190.76 222.49 L 191.12 222.49 L 191.12 223.20000000000002 L 191.6 223.20000000000002 L 191.6 223.38 L 191.96 223.38 L 191.96 224.09 L 192.68 224.09 L 192.68 224.45000000000002 L 193.16 224.45000000000002 L 193.16 224.63 L 194.36 224.63 L 194.36 225.54 L 194.72 225.54 L 194.72 226.26 L 195.08 226.26 L 195.08 226.44 L 195.44 226.44 L 195.44 227.17000000000002 L 195.92000000000002 227.17000000000002 L 195.92000000000002 227.72 L 196.28 227.72 L 196.28 227.9 L 197.12 227.9 L 197.12 228.45000000000002 L 197.84 228.45000000000002 L 197.84 228.82 L 198.20000000000002 228.82 L 198.20000000000002 229.19 L 198.68 229.19 L 198.68 229.75 L 199.04 229.75 L 199.04 230.12 L 199.4 230.12 L 199.4 230.87 L 200.24 230.87 L 200.24 231.24 L 200.6 231.24 L 200.6 231.62 L 200.96 231.62 L 200.96 232.18 L 201.44 232.18 L 201.44 232.37 L 201.8 232.37 L 201.8 232.94 L 202.16 232.94 L 202.16 233.89000000000001 L 203.36 233.89000000000001 L 203.36 234.47 L 204.20000000000002 234.47 L 204.20000000000002 234.66 L 204.56 234.66 L 204.56 235.63 L 204.92000000000002 235.63 L 204.92000000000002 236.21 L 205.4 236.21 L 205.4 236.59 L 205.76 236.59 L 205.76 236.79 L 206.12 236.79 L 206.12 236.98000000000002 L 206.48000000000002 236.98000000000002 L 206.48000000000002 237.18 L 206.96 237.18 L 206.96 237.57 L 207.32 237.57 L 207.32 237.76 L 207.68 237.76 L 207.68 237.96 L 208.52 237.96 L 208.52 238.16 L 210.08 238.16 L 210.08 238.56 L 210.92000000000002 238.56 L 210.92000000000002 238.76 L 211.64000000000001 238.76 L 211.64000000000001 238.96 L 212.0 238.96 L 212.0 239.16 L 212.84 239.16 L 212.84 239.36 L 213.20000000000002 239.36 L 213.20000000000002 239.77 L 213.68 239.77 L 213.68 240.59 L 214.04 240.59 L 214.04 241.0 L 214.4 241.0 L 214.4 241.62 L 214.76 241.62 L 214.76 242.44 L 215.24 242.44 L 215.24 242.86 L 215.6 242.86 L 215.6 243.48000000000002 L 215.96 243.48000000000002 L 215.96 243.89000000000001 L 216.44 243.89000000000001 L 216.44 244.73000000000002 L 216.8 244.73000000000002 L 216.8 244.94 L 217.16 244.94 L 217.16 245.15 L 218.0 245.15 L 218.0 245.57 L 218.36 245.57 L 218.36 246.41 L 218.72 246.41 L 218.72 247.05 L 219.20000000000002 247.05 L 219.20000000000002 247.26000000000002 L 219.56 247.26000000000002 L 219.56 248.12 L 219.92000000000002 248.12 L 219.92000000000002 248.97 L 220.4 248.97 L 220.4 249.19 L 220.76 249.19 L 220.76 249.62 L 221.48000000000002 249.62 L 221.48000000000002 249.83 L 222.32 249.83 L 222.32 250.05 L 223.16 250.05 L 223.16 250.48000000000002 L 223.52 250.48000000000002 L 223.52 250.70000000000002 L 223.88 250.70000000000002 L 223.88 250.92000000000002 L 224.24 250.92000000000002 L 224.24 251.14000000000001 L 224.72 251.14000000000001 L 224.72 251.58 L 225.08 251.58 L 225.08 252.02 L 227.0 252.02 L 227.0 252.24 L 227.48000000000002 252.24 L 227.48000000000002 252.46 L 229.4 252.46 L 229.4 252.69 L 229.76 252.69 L 229.76 252.92000000000002 L 230.6 252.92000000000002 L 230.6 253.15 L 231.44 253.15 L 231.44 253.38 L 231.8 253.38 L 231.8 254.07 L 232.16 254.07 L 232.16 254.54 L 232.52 254.54 L 232.52 255.48000000000002 L 233.0 255.48000000000002 L 233.0 255.95000000000002 L 233.36 255.95000000000002 L 233.36 256.42 L 234.20000000000002 256.42 L 234.20000000000002 256.89 L 234.56 256.89 L 234.56 257.37 L 234.92000000000002 257.37 L 234.92000000000002 257.61 L 236.12 257.61 L 236.12 258.09000000000003 L 236.48000000000002 258.09000000000003 L 236.48000000000002 258.58 L 236.96 258.58 L 236.96 258.82 L 237.68 258.82 L 237.68 259.06 L 238.04 259.06 L 238.04 259.8 L 238.52 259.8 L 238.52 260.3 L 238.88 260.3 L 238.88 260.54 L 239.24 260.54 L 239.24 260.79 L 239.72 260.79 L 239.72 261.29 L 240.08 261.29 L 240.08 261.54 L 240.44 261.54 L 240.44 262.04 L 240.8 262.04 L 240.8 262.29 L 241.28 262.29 L 241.28 262.54 L 241.64000000000001 262.54 L 241.64000000000001 262.8 L 242.0 262.8 L 242.0 263.56 L 242.48000000000002 263.56 L 242.48000000000002 264.07 L 243.20000000000002 264.07 L 243.20000000000002 264.58 L 243.56 264.58 L 243.56 265.1 L 244.4 265.1 L 244.4 265.62 L 244.76 265.62 L 244.76 266.4 L 245.24 266.4 L 245.24 266.92 L 245.96 266.92 L 245.96 267.44 L 246.32 267.44 L 246.32 268.5 L 246.8 268.5 L 246.8 269.56 L 247.16 269.56 L 247.16 270.35 L 247.52 270.35 L 247.52 270.62 L 248.0 270.62 L 248.0 270.89 L 248.36 270.89 L 248.36 271.16 L 249.56 271.16 L 249.56 271.43 L 249.92000000000002 271.43 L 249.92000000000002 271.7 L 250.28 271.7 L 250.28 271.97 L 250.76000000000002 271.97 L 250.76000000000002 272.79 L 251.48000000000002 272.79 L 251.48000000000002 273.33 L 251.84 273.33 L 251.84 274.16 L 252.32 274.16 L 252.32 274.7 L 252.68 274.7 L 252.68 275.25 L 253.04 275.25 L 253.04 275.8 L 254.24 275.8 L 254.24 276.36 L 255.08 276.36 L 255.08 276.91 L 255.8 276.91 L 255.8 277.48 L 256.28000000000003 277.48 L 256.28000000000003 277.76 L 256.64 277.76 L 256.64 278.6 L 257.0 278.6 L 257.0 278.89 L 257.48 278.89 L 257.48 279.45 L 258.56 279.45 L 258.56 279.74 L 259.04 279.74 L 259.04 280.32 L 259.76 280.32 L 259.76 280.61 L 260.96 280.61 L 260.96 281.2 L 261.32 281.2 L 261.32 281.5 L 261.8 281.5 L 261.8 282.09000000000003 L 262.52 282.09000000000003 L 262.52 282.38 L 263.36 282.38 L 263.36 282.68 L 263.72 282.68 L 263.72 282.98 L 264.08 282.98 L 264.08 283.28000000000003 L 264.92 283.28000000000003 L 264.92 283.59000000000003 L 265.76 283.59000000000003 L 265.76 283.89 L 266.12 283.89 L 266.12 284.2 L 266.48 284.2 L 266.48 284.81 L 268.04 284.81 L 268.04 285.13 L 268.52 285.13 L 268.52 285.44 L 269.24 285.44 L 269.24 286.41 L 269.6 286.41 L 269.6 286.73 L 270.08 286.73 L 270.08 287.05 L 271.28000000000003 287.05 L 271.28000000000003 287.38 L 271.64 287.38 L 271.64 288.03000000000003 L 274.04 288.03000000000003 L 274.04 288.36 L 275.6 288.36 L 275.6 289.04 L 275.96 289.04 L 275.96 289.38 L 276.32 289.38 L 276.32 289.73 L 277.16 289.73 L 277.16 290.07 L 277.52 290.07 L 277.52 290.42 L 279.92 290.42 L 279.92 291.13 L 282.32 291.13 L 282.32 291.49 L 282.68 291.49 L 282.68 291.85 L 283.40000000000003 291.85 L 283.40000000000003 292.59000000000003 L 283.88 292.59000000000003 L 283.88 292.95 L 284.6 292.95 L 284.6 293.32 L 286.64 293.32 L 286.64 293.71 L 287.36 293.71 L 287.36 294.48 L 288.2 294.48 L 288.2 294.87 L 289.76 294.87 L 289.76 295.66 L 290.6 295.66 L 290.6 296.06 L 291.8 296.06 L 291.8 296.86 L 292.52 296.86 L 292.52 297.27 L 292.88 297.27 L 292.88 298.08 L 296.12 298.08 L 296.12 298.51 L 298.40000000000003 298.51 L 298.40000000000003 298.94 L 299.24 298.94 L 299.24 299.38 L 302.0 299.38 L 302.0 300.29 L 303.2 300.29 L 303.2 300.74 L 304.40000000000003 300.74 L 304.40000000000003 301.2 L 306.32 301.2 L 306.32 302.13 L 306.68 302.13 L 306.68 303.06 L 308.36 303.06 L 308.36 303.53000000000003 L 308.72 303.53000000000003 L 308.72 304.0 L 309.08 304.0 L 309.08 304.48 L 309.44 304.48 L 309.44 304.95 L 309.92 304.95 L 309.92 305.91 L 310.64 305.91 L 310.64 306.38 L 311.12 306.38 L 311.12 306.86 L 311.48 306.86 L 311.48 307.35 L 311.84000000000003 307.35 L 311.84000000000003 307.83 L 312.2 307.83 L 312.2 308.79 L 314.24 308.79 L 314.24 309.28000000000003 L 314.96 309.28000000000003 L 314.96 309.77 L 316.16 309.77 L 316.16 310.27 L 317.36 310.27 L 317.36 310.76 L 318.56 310.76 L 318.56 311.26 L 318.92 311.26 L 318.92 312.27 L 320.48 312.27 L 320.48 313.81 L 322.16 313.81 L 322.16 314.33 L 322.88 314.33 L 322.88 314.85 L 323.72 314.85 L 323.72 315.38 L 325.28000000000003 315.38 L 325.28000000000003 315.92 L 325.64 315.92 L 325.64 316.46 L 326.12 316.46 L 326.12 317.0 L 326.48 317.0 L 326.48 317.55 L 329.24 317.55 L 329.24 318.11 L 329.96 318.11 L 329.96 318.68 L 330.8 318.68 L 330.8 319.24 L 332.0 319.24 L 332.0 319.82 L 332.72 319.82 L 332.72 320.97 L 333.92 320.97 L 333.92 321.56 L 336.68 321.56 L 336.68 322.16 L 337.16 322.16 L 337.16 322.76 L 339.08 322.76 L 339.08 323.39 L 339.92 323.39 L 339.92 324.01 L 340.28000000000003 324.01 L 340.28000000000003 324.64 L 341.84000000000003 324.64 L 341.84000000000003 325.28000000000003 L 342.68 325.28000000000003 L 342.68 325.93 L 343.76 325.93 L 343.76 326.58 L 346.52 326.58 L 346.52 327.27 L 347.72 327.27 L 347.72 327.96 L 348.56 327.96 L 348.56 328.66 L 351.68 328.66 L 351.68 329.40000000000003 L 352.04 329.40000000000003 L 352.04 330.15000000000003 L 354.44 330.15000000000003 L 354.44 331.7 L 355.64 331.7 L 355.64 332.48 L 356.84000000000003 332.48 L 356.84000000000003 333.27 L 357.2 333.27 L 357.2 334.06 L 358.04 334.06 L 358.04 334.86 L 363.92 334.86 L 363.92 335.72 L 364.28000000000003 335.72 L 364.28000000000003 336.58 L 371.48 336.58 L 371.48 337.53000000000003 L 372.56 337.53000000000003 L 372.56 338.5 L 373.40000000000003 338.5 L 373.40000000000003 339.48 L 374.96 339.48 L 374.96 341.5 L 375.32 341.5 L 375.32 342.52 L 375.8 342.52 L 375.8 343.56 L 377.0 343.56 L 377.0 344.64 L 377.72 344.64 L 377.72 345.72 L 378.08 345.72 L 378.08 346.81 L 389.96000000000004 346.81 L 389.96000000000004 348.15000000000003 L 401.36 348.15000000000003 L 401.36 349.75 L 401.84000000000003 349.75 L 401.84000000000003 351.36 L 403.76 351.36 L 403.76 353.01 L 407.36 353.01 L 407.36 354.78000000000003 L 416.36 354.78000000000003 L 416.36 356.85 L 421.88 356.85 L 421.88 358.96 L 422.36 358.96 L 422.36 361.07 L 428.24 361.07 L 428.24 363.41 L 432.2 363.41 L 432.2 365.87 L 444.44 365.87 L 444.44 369.53000000000003 L 444.8 369.53000000000003 L 444.8 373.19 L 489.8 373.19 L 489.8 382.49 L 543.8 382.49 L 543.8 382.49 " stroke="#1f77b4" stroke-width="2" fill="none" /><path d="M 59.0 119.0 L 59.84 119.0 L 59.84 119.09 L 60.2 119.09 L 60.2 119.18 L 64.88 119.18 L 64.88 119.27 L 65.72 119.27 L 65.72 119.44 L 66.08 119.44 L 66.08 119.62 L 66.44 119.62 L 66.44 119.71000000000001 L 66.92 119.71000000000001 L 66.92 119.89 L 67.28 119.89 L 67.28 120.07000000000001 L 67.64 120.07000000000001 L 67.64 120.34 L 68.84 120.34 L 68.84 120.43 L 69.68 120.43 L 69.68 120.61 L 70.04 120.61 L 70.04 121.06 L 70.4 121.06 L 70.4 121.15 L 70.88 121.15 L 70.88 121.24000000000001 L 71.24 121.24000000000001 L 71.24 121.42 L 71.60000000000001 121.42 L 71.60000000000001 121.51 L 72.44 121.51 L 72.44 121.60000000000001 L 72.8 121.60000000000001 L 72.8 121.79 L 73.16 121.79 L 73.16 121.97 L 73.64 121.97 L 73.64 122.24000000000001 L 74.0 122.24000000000001 L 74.0 122.33 L 74.36 122.33 L 74.36 122.42 L 74.72 122.42 L 74.72 122.61 L 75.2 122.61 L 75.2 122.79 L 75.56 122.79 L 75.56 122.97 L 75.92 122.97 L 75.92 123.06 L 76.4 123.06 L 76.4 123.25 L 76.76 123.25 L 76.76 123.34 L 77.12 123.34 L 77.12 123.61 L 77.60000000000001 123.61 L 77.60000000000001 123.71000000000001 L 77.96000000000001 123.71000000000001 L 77.96000000000001 123.8 L 78.32000000000001 123.8 L 78.32000000000001 123.89 L 78.68 123.89 L 78.68 124.07000000000001 L 79.16 124.07000000000001 L 79.16 124.26 L 79.52 124.26 L 79.52 124.44 L 79.88 124.44 L 79.88 124.81 L 80.36 124.81 L 80.36 125.09 L 80.72 125.09 L 80.72 125.18 L 81.08 125.18 L 81.08 125.36 L 81.44 125.36 L 81.44 125.55 L 81.92 125.55 L 81.92 125.73 L 82.28 125.73 L 82.28 126.01 L 82.64 126.01 L 82.64 126.10000000000001 L 83.12 126.10000000000001 L 83.12 126.19 L 83.84 126.19 L 83.84 126.38000000000001 L 84.68 126.38000000000001 L 84.68 126.56 L 85.4 126.56 L 85.4 126.66 L 85.88 126.66 L 85.88 127.12 L 86.24 127.12 L 86.24 127.21000000000001 L 86.60000000000001 127.21000000000001 L 86.60000000000001 127.4 L 86.96000000000001 127.4 L 86.96000000000001 127.49000000000001 L 87.44 127.49000000000001 L 87.44 127.68 L 87.8 127.68 L 87.8 128.14000000000001 L 88.16 128.14000000000001 L 88.16 128.33 L 88.64 128.33 L 88.64 128.61 L 89.0 128.61 L 89.0 129.07 L 89.36 129.07 L 89.36 129.17000000000002 L 89.72 129.17000000000002 L 89.72 129.35 L 90.2 129.35 L 90.2 129.63 L 90.56 129.63 L 90.56 129.82 L 90.92 129.82 L 90.92 129.91 L 91.4 129.91 L 91.4 130.29 L 91.76 130.29 L 91.76 130.57 L 92.12 130.57 L 92.12 130.85 L 92.48 130.85 L 92.48 130.94 L 92.96000000000001 130.94 L 92.96000000000001 131.04 L 93.32000000000001 131.04 L 93.32000000000001 131.32 L 93.68 131.32 L 93.68 131.41 L 94.16 131.41 L 94.16 131.6 L 94.88 131.6 L 94.88 131.88 L 95.24 131.88 L 95.24 132.16 L 95.72 132.16 L 95.72 132.35 L 96.08 132.35 L 96.08 132.63 L 96.44 132.63 L 96.44 133.01 L 96.92 133.01 L 96.92 133.2 L 97.28 133.2 L 97.28 133.29 L 97.64 133.29 L 97.64 133.67000000000002 L 98.0 133.67000000000002 L 98.0 133.76 L 98.84 133.76 L 98.84 134.05 L 99.2 134.05 L 99.2 134.14000000000001 L 99.68 134.14000000000001 L 99.68 134.43 L 100.4 134.43 L 100.4 134.62 L 101.24000000000001 134.62 L 101.24000000000001 134.9 L 101.60000000000001 134.9 L 101.60000000000001 134.99 L 102.44 134.99 L 102.44 135.18 L 102.8 135.18 L 102.8 135.37 L 103.16 135.37 L 103.16 135.56 L 103.52 135.56 L 103.52 135.85 L 104.0 135.85 L 104.0 135.94 L 104.36 135.94 L 104.36 136.13 L 104.72 136.13 L 104.72 136.23 L 105.2 136.23 L 105.2 136.71 L 105.56 136.71 L 105.56 136.8 L 105.92 136.8 L 105.92 136.9 L 106.28 136.9 L 106.28 137.28 L 107.48 137.28 L 107.48 137.37 L 107.96000000000001 137.37 L 107.96000000000001 137.57 L 108.32000000000001 137.57 L 108.32000000000001 138.14000000000001 L 108.68 138.14000000000001 L 108.68 138.43 L 109.04 138.43 L 109.04 138.62 L 109.52 138.62 L 109.52 138.71 L 109.88 138.71 L 109.88 139.0 L 110.24000000000001 139.0 L 110.24000000000001 139.1 L 111.08 139.1 L 111.08 139.58 L 111.44 139.58 L 111.44 139.87 L 111.8 139.87 L 111.8 140.25 L 112.28 140.25 L 112.28 140.64000000000001 L 112.64 140.64000000000001 L 112.64 140.93 L 113.84 140.93 L 113.84 141.12 L 114.2 141.12 L 114.2 141.22 L 114.68 141.22 L 114.68 141.31 L 115.04 141.31 L 115.04 141.61 L 115.4 141.61 L 115.4 141.9 L 115.76 141.9 L 115.76 141.99 L 116.24000000000001 141.99 L 116.24000000000001 142.29 L 116.60000000000001 142.29 L 116.60000000000001 142.58 L 116.96000000000001 142.58 L 116.96000000000001 142.77 L 117.44 142.77 L 117.44 143.07 L 117.8 143.07 L 117.8 143.17000000000002 L 118.16 143.17000000000002 L 118.16 143.36 L 118.52 143.36 L 118.52 143.75 L 119.0 143.75 L 119.0 143.95000000000002 L 119.36 143.95000000000002 L 119.36 144.15 L 119.72 144.15 L 119.72 144.34 L 120.2 144.34 L 120.2 144.54 L 120.92 144.54 L 120.92 144.64000000000001 L 121.28 144.64000000000001 L 121.28 144.74 L 121.76 144.74 L 121.76 144.94 L 122.12 144.94 L 122.12 145.14000000000001 L 122.96000000000001 145.14000000000001 L 122.96000000000001 145.53 L 123.32000000000001 145.53 L 123.32000000000001 145.73 L 123.68 145.73 L 123.68 145.93 L 124.04 145.93 L 124.04 146.03 L 124.52 146.03 L 124.52 146.33 L 124.88000000000001 146.33 L 124.88000000000001 146.73 L 125.24000000000001 146.73 L 125.24000000000001 147.03 L 125.72 147.03 L 125.72 147.33 L 126.08 147.33 L 126.08 147.63 L 126.44 147.63 L 126.44 147.84 L 126.8 147.84 L 126.8 147.94 L 127.28 147.94 L 127.28 148.24 L 127.64 148.24 L 127.64 148.34 L 128.0 148.34 L 128.0 148.54 L 128.48 148.54 L 128.48 148.64000000000001 L 128.84 148.64000000000001 L 128.84 149.05 L 129.56 149.05 L 129.56 149.26 L 130.04 149.26 L 130.04 149.46 L 130.76 149.46 L 130.76 149.77 L 131.24 149.77 L 131.24 149.97 L 131.96 149.97 L 131.96 150.07 L 132.32 150.07 L 132.32 150.28 L 132.8 150.28 L 132.8 150.38 L 133.16 150.38 L 133.16 150.69 L 134.0 150.69 L 134.0 150.8 L 134.36 150.8 L 134.36 150.9 L 135.08 150.9 L 135.08 151.32 L 135.92000000000002 151.32 L 135.92000000000002 151.74 L 136.28 151.74 L 136.28 151.95000000000002 L 136.76 151.95000000000002 L 136.76 152.37 L 137.12 152.37 L 137.12 152.69 L 137.48 152.69 L 137.48 152.9 L 137.84 152.9 L 137.84 153.01 L 138.32 153.01 L 138.32 153.22 L 138.68 153.22 L 138.68 153.33 L 139.52 153.33 L 139.52 153.55 L 139.88 153.55 L 139.88 153.76 L 140.24 153.76 L 140.24 154.08 L 140.6 154.08 L 140.6 154.3 L 141.08 154.3 L 141.08 154.52 L 141.8 154.52 L 141.8 154.73 L 142.28 154.73 L 142.28 154.84 L 143.36 154.84 L 143.36 154.95000000000002 L 143.84 154.95000000000002 L 143.84 155.06 L 145.04 155.06 L 145.04 155.17000000000002 L 145.4 155.17000000000002 L 145.4 155.28 L 145.76 155.28 L 145.76 155.5 L 146.12 155.5 L 146.12 155.95000000000002 L 146.6 155.95000000000002 L 146.6 156.28 L 146.96 156.28 L 146.96 156.5 L 147.32 156.5 L 147.32 156.84 L 147.8 156.84 L 147.8 157.06 L 148.16 157.06 L 148.16 157.17000000000002 L 149.0 157.17000000000002 L 149.0 157.29 L 149.36 157.29 L 149.36 157.4 L 149.72 157.4 L 149.72 157.62 L 150.08 157.62 L 150.08 157.85 L 151.28 157.85 L 151.28 158.42000000000002 L 151.76 158.42000000000002 L 151.76 158.65 L 152.12 158.65 L 152.12 158.76 L 152.48 158.76 L 152.48 158.88 L 152.84 158.88 L 152.84 158.99 L 153.32 158.99 L 153.32 159.23 L 153.68 159.23 L 153.68 159.46 L 154.04 159.46 L 154.04 159.57 L 154.52 159.57 L 154.52 159.69 L 154.88 159.69 L 154.88 160.04 L 155.24 160.04 L 155.24 160.39000000000001 L 155.6 160.39000000000001 L 155.6 160.74 L 156.08 160.74 L 156.08 160.85 L 156.44 160.85 L 156.44 160.97 L 156.8 160.97 L 156.8 161.20000000000002 L 157.28 161.20000000000002 L 157.28 161.44 L 157.64000000000001 161.44 L 157.64000000000001 161.79 L 158.0 161.79 L 158.0 162.26 L 158.36 162.26 L 158.36 162.38 L 158.84 162.38 L 158.84 162.62 L 159.20000000000002 162.62 L 159.20000000000002 162.74 L 159.56 162.74 L 159.56 162.97 L 160.04 162.97 L 160.04 163.33 L 160.4 163.33 L 160.4 163.45000000000002 L 160.76 163.45000000000002 L 160.76 163.57 L 161.12 163.57 L 161.12 164.29 L 161.6 164.29 L 161.6 164.53 L 161.96 164.53 L 161.96 165.25 L 163.16 165.25 L 163.16 165.73 L 163.52 165.73 L 163.52 166.21 L 163.88 166.21 L 163.88 166.33 L 164.36 166.33 L 164.36 167.06 L 164.72 167.06 L 164.72 167.18 L 165.08 167.18 L 165.08 167.3 L 165.56 167.3 L 165.56 167.67000000000002 L 165.92000000000002 167.67000000000002 L 165.92000000000002 167.79 L 166.28 167.79 L 166.28 167.91 L 167.12 167.91 L 167.12 168.28 L 167.48 168.28 L 167.48 168.53 L 167.84 168.53 L 167.84 168.77 L 168.32 168.77 L 168.32 169.27 L 168.68 169.27 L 168.68 169.39000000000001 L 169.04 169.39000000000001 L 169.04 169.89000000000001 L 169.4 169.89000000000001 L 169.4 170.01 L 169.88 170.01 L 169.88 170.38 L 170.24 170.38 L 170.24 170.63 L 170.6 170.63 L 170.6 170.88 L 171.08 170.88 L 171.08 171.51 L 171.44 171.51 L 171.44 171.88 L 171.8 171.88 L 171.8 172.01 L 172.16 172.01 L 172.16 172.51 L 172.64000000000001 172.51 L 172.64000000000001 172.64000000000001 L 173.0 172.64000000000001 L 173.0 172.76 L 173.36 172.76 L 173.36 173.52 L 173.84 173.52 L 173.84 173.9 L 174.20000000000002 173.9 L 174.20000000000002 174.4 L 174.56 174.4 L 174.56 174.66 L 174.92000000000002 174.66 L 174.92000000000002 174.91 L 175.4 174.91 L 175.4 175.04 L 175.76 175.04 L 175.76 175.17000000000002 L 176.6 175.17000000000002 L 176.6 175.29 L 176.96 175.29 L 176.96 175.42000000000002 L 177.32 175.42000000000002 L 177.32 175.81 L 178.16 175.81 L 178.16 176.06 L 178.52 176.06 L 178.52 176.32 L 178.88 176.32 L 178.88 176.45000000000002 L 179.36 176.45000000000002 L 179.36 176.58 L 180.08 176.58 L 180.08 177.1 L 180.44 177.1 L 180.44 177.36 L 180.92000000000002 177.36 L 180.92000000000002 177.62 L 181.64000000000001 177.62 L 181.64000000000001 177.89000000000001 L 182.12 177.89000000000001 L 182.12 178.02 L 182.48 178.02 L 182.48 178.41 L 182.84 178.41 L 182.84 178.81 L 183.32 178.81 L 183.32 178.94 L 183.68 178.94 L 183.68 179.47 L 184.04 179.47 L 184.04 179.61 L 184.4 179.61 L 184.4 179.87 L 184.88 179.87 L 184.88 180.01 L 185.24 180.01 L 185.24 180.41 L 185.6 180.41 L 185.6 180.54 L 186.08 180.54 L 186.08 180.68 L 186.8 180.68 L 186.8 180.81 L 187.16 180.81 L 187.16 181.08 L 187.64000000000001 181.08 L 187.64000000000001 181.22 L 188.0 181.22 L 188.0 181.49 L 188.36 181.49 L 188.36 181.76 L 188.84 181.76 L 188.84 181.9 L 189.20000000000002 181.9 L 189.20000000000002 182.31 L 189.56 182.31 L 189.56 182.72 L 190.4 182.72 L 190.4 183.4 L 190.76 183.4 L 190.76 184.23 L 191.12 184.23 L 191.12 184.37 L 191.6 184.37 L 191.6 184.5 L 191.96 184.5 L 191.96 184.64000000000001 L 192.68 184.64000000000001 L 192.68 184.78 L 193.16 184.78 L 193.16 185.06 L 193.52 185.06 L 193.52 185.20000000000002 L 193.88 185.20000000000002 L 193.88 185.62 L 194.72 185.62 L 194.72 186.19 L 195.08 186.19 L 195.08 186.61 L 195.92000000000002 186.61 L 195.92000000000002 187.04 L 196.28 187.04 L 196.28 187.32 L 196.64000000000001 187.32 L 196.64000000000001 187.6 L 197.12 187.6 L 197.12 187.89000000000001 L 197.48000000000002 187.89000000000001 L 197.48000000000002 188.32 L 198.20000000000002 188.32 L 198.20000000000002 188.6 L 198.68 188.6 L 198.68 188.89000000000001 L 199.04 188.89000000000001 L 199.04 189.18 L 199.4 189.18 L 199.4 189.32 L 199.88 189.32 L 199.88 189.61 L 200.24 189.61 L 200.24 190.34 L 200.6 190.34 L 200.6 190.77 L 200.96 190.77 L 200.96 190.92000000000002 L 201.8 190.92000000000002 L 201.8 191.06 L 202.16 191.06 L 202.16 191.36 L 203.0 191.36 L 203.0 191.65 L 203.36 191.65 L 203.36 192.09 L 203.72 192.09 L 203.72 192.84 L 204.20000000000002 192.84 L 204.20000000000002 193.13 L 204.92000000000002 193.13 L 204.92000000000002 193.43 L 205.4 193.43 L 205.4 194.18 L 205.76 194.18 L 205.76 194.93 L 206.12 194.93 L 206.12 195.23000000000002 L 206.96 195.23000000000002 L 206.96 195.38 L 207.68 195.38 L 207.68 195.54 L 208.16 195.54 L 208.16 195.84 L 208.52 195.84 L 208.52 196.45000000000002 L 208.88 196.45000000000002 L 208.88 196.76 L 209.24 196.76 L 209.24 197.06 L 209.72 197.06 L 209.72 197.22 L 210.44 197.22 L 210.44 197.37 L 211.28 197.37 L 211.28 197.68 L 211.64000000000001 197.68 L 211.64000000000001 197.84 L 212.0 197.84 L 212.0 197.99 L 212.48000000000002 197.99 L 212.48000000000002 198.62 L 212.84 198.62 L 212.84 198.93 L 213.20000000000002 198.93 L 213.20000000000002 199.41 L 213.68 199.41 L 213.68 200.19 L 214.04 200.19 L 214.04 200.67000000000002 L 214.4 200.67000000000002 L 214.4 200.83 L 214.76 200.83 L 214.76 200.98000000000002 L 215.24 200.98000000000002 L 215.24 201.46 L 215.6 201.46 L 215.6 201.62 L 215.96 201.62 L 215.96 201.78 L 216.8 201.78 L 216.8 202.1 L 217.16 202.1 L 217.16 202.26 L 217.52 202.26 L 217.52 202.58 L 219.56 202.58 L 219.56 202.74 L 219.92000000000002 202.74 L 219.92000000000002 202.9 L 220.4 202.9 L 220.4 203.23000000000002 L 221.12 203.23000000000002 L 221.12 203.72 L 221.48000000000002 203.72 L 221.48000000000002 204.05 L 221.96 204.05 L 221.96 204.21 L 222.32 204.21 L 222.32 204.71 L 223.16 204.71 L 223.16 204.88 L 223.52 204.88 L 223.52 205.05 L 223.88 205.05 L 223.88 205.55 L 225.44 205.55 L 225.44 206.05 L 225.92000000000002 206.05 L 225.92000000000002 206.56 L 226.28 206.56 L 226.28 206.73000000000002 L 226.64000000000001 206.73000000000002 L 226.64000000000001 206.9 L 227.0 206.9 L 227.0 207.58 L 227.48000000000002 207.58 L 227.48000000000002 207.92000000000002 L 227.84 207.92000000000002 L 227.84 208.27 L 228.20000000000002 208.27 L 228.20000000000002 208.44 L 228.68 208.44 L 228.68 208.78 L 229.04 208.78 L 229.04 209.13 L 229.4 209.13 L 229.4 209.3 L 229.76 209.3 L 229.76 209.47 L 230.24 209.47 L 230.24 209.82 L 230.6 209.82 L 230.6 210.17000000000002 L 230.96 210.17000000000002 L 230.96 210.70000000000002 L 231.44 210.70000000000002 L 231.44 211.05 L 231.8 211.05 L 231.8 211.4 L 232.16 211.4 L 232.16 211.58 L 232.52 211.58 L 232.52 211.93 L 233.0 211.93 L 233.0 212.11 L 233.36 212.11 L 233.36 212.46 L 234.20000000000002 212.46 L 234.20000000000002 212.64000000000001 L 234.56 212.64000000000001 L 234.56 212.82 L 234.92000000000002 212.82 L 234.92000000000002 213.0 L 235.28 213.0 L 235.28 213.54 L 235.76 213.54 L 235.76 214.08 L 236.12 214.08 L 236.12 214.26 L 236.48000000000002 214.26 L 236.48000000000002 214.44 L 236.96 214.44 L 236.96 214.62 L 237.32 214.62 L 237.32 215.17000000000002 L 238.04 215.17000000000002 L 238.04 215.35 L 238.52 215.35 L 238.52 215.72 L 238.88 215.72 L 238.88 215.9 L 240.08 215.9 L 240.08 216.27 L 240.44 216.27 L 240.44 216.65 L 240.8 216.65 L 240.8 216.83 L 241.28 216.83 L 241.28 217.39000000000001 L 242.0 217.39000000000001 L 242.0 217.58 L 242.84 217.58 L 242.84 217.77 L 243.20000000000002 217.77 L 243.20000000000002 218.15 L 244.04 218.15 L 244.04 218.34 L 244.4 218.34 L 244.4 218.92000000000002 L 245.6 218.92000000000002 L 245.6 219.31 L 245.96 219.31 L 245.96 219.69 L 246.32 219.69 L 246.32 219.89000000000001 L 246.8 219.89000000000001 L 246.8 220.08 L 247.16 220.08 L 247.16 220.28 L 247.52 220.28 L 247.52 220.48000000000002 L 248.0 220.48000000000002 L 248.0 220.67000000000002 L 249.56 220.67000000000002 L 249.56 220.87 L 249.92000000000002 220.87 L 249.92000000000002 221.07 L 250.28 221.07 L 250.28 221.27 L 250.76000000000002 221.27 L 250.76000000000002 221.68 L 251.12 221.68 L 251.12 221.88 L 251.48000000000002 221.88 L 251.48000000000002 222.08 L 252.32 222.08 L 252.32 222.49 L 254.24 222.49 L 254.24 223.1 L 254.72 223.1 L 254.72 223.72 L 255.44 223.72 L 255.44 224.55 L 256.28000000000003 224.55 L 256.28000000000003 224.76 L 256.64 224.76 L 256.64 224.97 L 257.0 224.97 L 257.0 225.38 L 257.48 225.38 L 257.48 225.59 L 257.84000000000003 225.59 L 257.84000000000003 225.8 L 258.2 225.8 L 258.2 226.23000000000002 L 258.56 226.23000000000002 L 258.56 226.44 L 259.04 226.44 L 259.04 226.87 L 260.24 226.87 L 260.24 227.72 L 260.96 227.72 L 260.96 227.94 L 261.32 227.94 L 261.32 228.16 L 261.8 228.16 L 261.8 228.37 L 262.16 228.37 L 262.16 228.59 L 263.36 228.59 L 263.36 229.25 L 263.72 229.25 L 263.72 229.92000000000002 L 264.08 229.92000000000002 L 264.08 230.14000000000001 L 264.56 230.14000000000001 L 264.56 230.36 L 264.92 230.36 L 264.92 230.81 L 265.28000000000003 230.81 L 265.28000000000003 231.03 L 265.76 231.03 L 265.76 231.70000000000002 L 267.32 231.70000000000002 L 267.32 232.39000000000001 L 267.68 232.39000000000001 L 267.68 232.84 L 268.52 232.84 L 268.52 233.3 L 269.6 233.3 L 269.6 233.54 L 270.44 233.54 L 270.44 234.0 L 271.64 234.0 L 271.64 234.24 L 272.36 234.24 L 272.36 234.48000000000002 L 273.2 234.48000000000002 L 273.2 234.96 L 274.04 234.96 L 274.04 235.20000000000002 L 274.40000000000003 235.20000000000002 L 274.40000000000003 235.45000000000002 L 275.12 235.45000000000002 L 275.12 235.69 L 275.96 235.69 L 275.96 236.18 L 277.52 236.18 L 277.52 237.18 L 279.08 237.18 L 279.08 237.43 L 279.56 237.43 L 279.56 237.68 L 279.92 237.68 L 279.92 238.18 L 280.28000000000003 238.18 L 280.28000000000003 238.69 L 281.12 238.69 L 281.12 238.95000000000002 L 281.48 238.95000000000002 L 281.48 239.46 L 282.32 239.46 L 282.32 239.72 L 282.68 239.72 L 282.68 239.97 L 283.04 239.97 L 283.04 240.23000000000002 L 283.88 240.23000000000002 L 283.88 240.49 L 284.24 240.49 L 284.24 241.54 L 284.6 241.54 L 284.6 242.07 L 285.08 242.07 L 285.08 242.33 L 286.16 242.33 L 286.16 242.59 L 286.64 242.59 L 286.64 243.13 L 287.0 243.13 L 287.0 243.4 L 287.84000000000003 243.4 L 287.84000000000003 243.66 L 288.56 243.66 L 288.56 243.94 L 289.04 243.94 L 289.04 244.49 L 289.40000000000003 244.49 L 289.40000000000003 244.76 L 290.12 244.76 L 290.12 245.87 L 290.6 245.87 L 290.6 246.14000000000001 L 290.96 246.14000000000001 L 290.96 246.70000000000002 L 291.32 246.70000000000002 L 291.32 247.26000000000002 L 291.8 247.26000000000002 L 291.8 247.54 L 292.16 247.54 L 292.16 247.82 L 292.52 247.82 L 292.52 248.39000000000001 L 292.88 248.39000000000001 L 292.88 248.67000000000002 L 293.72 248.67000000000002 L 293.72 248.95000000000002 L 294.08 248.95000000000002 L 294.08 249.24 L 294.56 249.24 L 294.56 249.52 L 295.64 249.52 L 295.64 249.81 L 296.84000000000003 249.81 L 296.84000000000003 250.1 L 297.32 250.1 L 297.32 250.39000000000001 L 298.40000000000003 250.39000000000001 L 298.40000000000003 250.68 L 298.88 250.68 L 298.88 251.28 L 299.24 251.28 L 299.24 251.57 L 302.0 251.57 L 302.0 251.88 L 302.36 251.88 L 302.36 252.18 L 303.56 252.18 L 303.56 252.8 L 304.40000000000003 252.8 L 304.40000000000003 253.42000000000002 L 304.76 253.42000000000002 L 304.76 253.73000000000002 L 305.12 253.73000000000002 L 305.12 254.67000000000002 L 305.6 254.67000000000002 L 305.6 254.99 L 305.96 254.99 L 305.96 255.31 L 307.16 255.31 L 307.16 255.63 L 307.88 255.63 L 307.88 255.95000000000002 L 308.72 255.95000000000002 L 308.72 256.28000000000003 L 311.84000000000003 256.28000000000003 L 311.84000000000003 256.62 L 312.2 256.62 L 312.2 256.96 L 312.68 256.96 L 312.68 257.64 L 313.04 257.64 L 313.04 258.68 L 313.40000000000003 258.68 L 313.40000000000003 259.03000000000003 L 314.96 259.03000000000003 L 314.96 259.38 L 315.44 259.38 L 315.44 259.73 L 316.16 259.73 L 316.16 260.09000000000003 L 320.48 260.09000000000003 L 320.48 260.46 L 320.96 260.46 L 320.96 260.83 L 321.68 260.83 L 321.68 261.59000000000003 L 322.16 261.59000000000003 L 322.16 261.96 L 323.72 261.96 L 323.72 262.35 L 324.08 262.35 L 324.08 262.74 L 325.64 262.74 L 325.64 263.13 L 326.84000000000003 263.13 L 326.84000000000003 263.92 L 327.2 263.92 L 327.2 264.32 L 329.24 264.32 L 329.24 264.73 L 331.16 264.73 L 331.16 265.16 L 332.36 265.16 L 332.36 265.58 L 332.72 265.58 L 332.72 266.01 L 335.48 266.01 L 335.48 266.9 L 338.24 266.9 L 338.24 267.37 L 339.08 267.37 L 339.08 267.84000000000003 L 339.44 267.84000000000003 L 339.44 268.31 L 341.0 268.31 L 341.0 268.8 L 341.48 268.8 L 341.48 269.28000000000003 L 343.04 269.28000000000003 L 343.04 269.78000000000003 L 343.76 269.78000000000003 L 343.76 270.28000000000003 L 346.16 270.28000000000003 L 346.16 270.8 L 347.36 270.8 L 347.36 271.32 L 347.72 271.32 L 347.72 271.85 L 348.56 271.85 L 348.56 272.91 L 348.92 272.91 L 348.92 273.45 L 349.28000000000003 273.45 L 349.28000000000003 273.98 L 350.12 273.98 L 350.12 274.52 L 351.32 274.52 L 351.32 275.08 L 354.8 275.08 L 354.8 275.66 L 357.2 275.66 L 357.2 276.24 L 363.92 276.24 L 363.92 276.89 L 364.76 276.89 L 364.76 277.54 L 367.52 277.54 L 367.52 278.24 L 367.88 278.24 L 367.88 278.93 L 370.28000000000003 278.93 L 370.28000000000003 279.64 L 371.0 279.64 L 371.0 281.08 L 372.56 281.08 L 372.56 281.8 L 373.76 281.8 L 373.76 282.53000000000003 L 375.32 282.53000000000003 L 375.32 283.28000000000003 L 377.36 283.28000000000003 L 377.36 284.05 L 377.72 284.05 L 377.72 285.59000000000003 L 384.8 285.59000000000003 L 384.8 286.45 L 389.96000000000004 286.45 L 389.96000000000004 287.35 L 391.16 287.35 L 391.16 288.28000000000003 L 396.68 288.28000000000003 L 396.68 289.3 L 397.88 289.3 L 397.88 290.34000000000003 L 400.28000000000003 290.34000000000003 L 400.28000000000003 291.44 L 400.64 291.44 L 400.64 292.55 L 411.68 292.55 L 411.68 293.93 L 412.40000000000003 293.93 L 412.40000000000003 295.35 L 416.36 295.35 L 416.36 296.90000000000003 L 419.12 296.90000000000003 L 419.12 298.54 L 424.64 298.54 L 424.64 300.37 L 431.84000000000003 300.37 L 431.84000000000003 302.52 L 442.88 302.52 L 442.88 305.18 L 444.44 305.18 L 444.44 307.88 L 453.44 307.88 L 453.44 311.14 L 459.8 311.14 L 459.8 315.03000000000003 L 484.28000000000003 315.03000000000003 L 484.28000000000003 321.21 L 492.92 321.21 L 492.92 328.72 L 498.08 328.72 L 498.08 336.98 L 503.6 336.98 L 503.6 351.26 L 540.6800000000001 351.26 L 540.6800000000001 351.26 " stroke="#ff7f0e" stroke-width="2" fill="none" /><rect x="664" y="34" width="145.5" height="56" fill="#ffffff" /><rect x="664" y="34" width="145.5" height="56" fill="none" stroke="#000000" stroke-width="1" /><text x="694" y="53.2" font-size="12" text-anchor="start">TP53-mutant</text><line x1="674" y1="49" x2="686" y2="49" stroke="#1f77b4" stroke-width="2" /><text x="694" y="71.2" font-size="12" text-anchor="start">TP53-wildtype</text><line x1="674" y1="67" x2="686" y2="67" stroke="#ff7f0e" stroke-width="2" /></svg>