<svg xmlns="http://www.w3.org/2000/svg" width="673" height="545" font-family="DejaVu Sans, Liberation Sans, Arial, sans-serif" fill="black"><rect width="100%" height="100%" fill="white" /><line x1="59" y1="494" x2="659" y2="494" stroke="#000000" stroke-width="1" /><line x1="59" y1="44" x2="59" y2="494" stroke="#000000" stroke-width="1" /><line x1="59" y1="404" x2="659" y2="404" stroke="#cccccc" stroke-width="1" /><line x1="59" y1="314" x2="659" y2="314" stroke="#cccccc" stroke-width="1" /><line x1="59" y1="224" x2="659" y2="224" stroke="#cccccc" stroke-width="1" /><line x1="59" y1="134" x2="659" y2="134" stroke="#cccccc" stroke-width="1" /><line x1="59" y1="44" x2="659" y2="44" stroke="#cccccc" stroke-width="1" /><text x="144.71" y="511" font-size="12" text-anchor="middle">TP53/KRAS</text><line x1="144.71" y1="494" x2="144.71" y2="499" stroke="#000000" stroke-width="1" /><text x="230.43" y="511" font-size="12" text-anchor="middle">TP53/PIK3CA</text><line x1="230.43" y1="494" x2="230.43" y2="499" stroke="#000000" stroke-width="1" /><text x="316.14" y="511" font-size="12" text-anchor="middle">TP53/EGFR</text><line x1="316.14" y1="494" x2="316.14" y2="499" stroke="#000000" stroke-width="1" /><text x="401.86" y="511" font-size="12" text-anchor="middle">KRAS/PIK3CA</text><line x1="401.86" y1="494" x2="401.86" y2="499" stroke="#000000" stroke-width="1" /><text x="487.57" y="511" font-size="12" text-anchor="middle">KRAS/EGFR</text><line x1="487.57" y1="494" x2="487.57" y2="499" stroke="#000000" stroke-width="1" /><text x="573.29" y="511" font-size="12" text-anchor="middle">PIK3CA/EGFR</text><line x1="573.29" y1="494" x2="573.29" y2="499" stroke="#000000" stroke-width="1" /><line x1="54" y1="494" x2="59" y2="494" stroke="#000000" stroke-width="1" /><text x="51" y="498.2" font-size="12" text-anchor="end">0</text><line x1="54" y1="404" x2="59" y2="404" stroke="#000000" stroke-width="1" /><text x="51" y="408.2" font-size="12" text-anchor="end">200</text><line x1="54" y1="314" x2="59" y2="314" stroke="#000000" stroke-width="1" /><text x="51" y="318.2" font-size="12" text-anchor="end">400</text><line x1="54" y1="224" x2="59" y2="224" stroke="#000000" stroke-width="1" /><text x="51" y="228.20000000000002" font-size="12" text-anchor="end">600</text><line x1="54" y1="134" x2="59" y2="134" stroke="#000000" stroke-width="1" /><text x="51" y="138.20000000000002" font-size="12" text-anchor="end">800</text><line x1="54" y1="44" x2="59" y2="44" stroke="#000000" stroke-width="1" /><text x="51" y="48.2" font-size="12" text-anchor="end">1000</text><text x="359" y="538" font-size="14" text-anchor="middle">Gene pair</text><text x="15" y="272.5" font-size="14" text-anchor="middle" transform="rotate(-90,15,272.5)">Both mutated</text><text x="359" y="22" font-size="18" text-anchor="middle">Co-occurrence in msk_impact_2017</text><rect x="110.43" y="113.75" width="68.57000000000001" height="380.25" fill="#1f77b4" /><rect x="196.14000000000001" y="233.9" width="68.57000000000001" height="260.1" fill="#1f77b4" /><rect x="281.86" y="333.35" width="68.57000000000001" height="160.65" fill="#1f77b4" /><rect x="367.57" y="394.1" width="68.57000000000001" height="99.9" fill="#1f77b4" /><rect x="453.29" y="477.35" width="68.57000000000001" height="16.65" fill="#1f77b4" /><rect x="539" y="452.15000000000003" width="68.57000000000001" height="41.85" fill="#1f77b4" /></svg>