<svg xmlns="http://www.w3.org/2000/svg" width="685" height="545" font-family="DejaVu Sans, Liberation Sans, Arial, sans-serif" fill="black"><rect width="100%" height="100%" fill="white" /><line x1="71" y1="494" x2="671" y2="494" stroke="#000000" stroke-width="1" /><line x1="71" y1="44" x2="71" y2="494" stroke="#000000" stroke-width="1" /><line x1="71" y1="365.43" x2="671" y2="365.43" stroke="#cccccc" stroke-width="1" /><line x1="71" y1="236.86" x2="671" y2="236.86" stroke="#cccccc" stroke-width="1" /><line x1="71" y1="108.29" x2="671" y2="108.29" stroke="#cccccc" stroke-width="1" /><text x="221" y="511" font-size="12" text-anchor="middle">TP53-mutant</text><line x1="221" y1="494" x2="221" y2="499" stroke="#000000" stroke-width="1" /><text x="521" y="511" font-size="12" text-anchor="middle">TP53-wildtype</text><line x1="521" y1="494" x2="521" y2="499" stroke="#000000" stroke-width="1" /><line x1="66" y1="494" x2="71" y2="494" stroke="#000000" stroke-width="1" /><text x="63" y="498.2" font-size="12" text-anchor="end">0</text><line x1="66" y1="365.43" x2="71" y2="365.43" stroke="#000000" stroke-width="1" /><text x="63" y="369.63" font-size="12" text-anchor="end">0.05</text><line x1="66" y1="236.86" x2="71" y2="236.86" stroke="#000000" stroke-width="1" /><text x="63" y="241.06" font-size="12" text-anchor="end">0.1</text><line x1="66" y1="108.29" x2="71" y2="108.29" stroke="#000000" stroke-width="1" /><text x="63" y="112.49000000000001" font-size="12" text-anchor="end">0.15</text><text x="371" y="538" font-size="14" text-anchor="middle">Group</text><text x="15" y="272.5" font-size="14" text-anchor="middle" transform="rotate(-90,15,272.5)">Event rate</text><text x="371" y="22" font-size="18" text-anchor="middle">TP53 survival event rate</text><rect x="101" y="109.76" width="240" height="384.24" fill="#1f77b4" /><rect x="401" y="148.11" width="240" height="345.89" fill="#1f77b4" /></svg>